<svg width="19" height="25" viewBox="0 0 19 25" fill="none" xmlns="http://www.w3.org/2000/svg">
<path fill-rule="evenodd" clip-rule="evenodd" d="M9.04163 0.892632C7.28389 1.2124 5.87791 2.5599 5.50374 4.28331C5.46124 4.47912 5.41894 4.9757 5.40393 5.45549L5.37786 6.28798L4.62247 6.28854C3.80214 6.28915 3.56379 6.33038 3.14225 6.54452C2.63305 6.80318 2.13933 7.47874 2.01898 8.08131C1.92218 8.56622 0.692725 22.5716 0.712142 22.9684C0.727337 23.2783 0.758714 23.4072 0.877654 23.6485C1.13059 24.1613 1.60949 24.5671 2.1942 24.7641C2.47828 24.8598 2.53784 24.8606 9.75307 24.8606C16.9683 24.8606 17.0279 24.8598 17.3119 24.7641C17.9055 24.5642 18.3804 24.161 18.6242 23.65C18.7431 23.401 18.7746 23.2674 18.7915 22.9411C18.8061 22.658 18.6244 20.4444 18.1769 15.457C17.8275 11.5619 17.5199 8.25897 17.4934 8.1171C17.365 7.43104 16.8667 6.78569 16.2307 6.48196L15.8736 6.31143L15.0013 6.29543L14.129 6.27944L14.1011 5.42777C14.0683 4.42968 13.9591 3.9097 13.6489 3.27462C13.1251 2.20261 12.0127 1.29054 10.8552 0.983995C10.4388 0.873684 9.42608 0.822657 9.04163 0.892632ZM10.7302 2.31559C11.2136 2.48406 11.5535 2.69769 11.9089 3.0563C12.2671 3.41785 12.4791 3.75432 12.6496 4.23209C12.7609 4.54389 12.7742 4.65631 12.7921 5.43204L12.8119 6.28798H9.78168H6.75143L6.75223 5.57274C6.75317 4.76582 6.81498 4.39099 7.02172 3.93934C7.40668 3.09818 8.22017 2.43092 9.10701 2.22902C9.55838 2.12621 10.3005 2.16584 10.7302 2.31559ZM5.4007 9.16064C5.41387 10.6217 5.42068 10.7301 5.50857 10.8789C5.68421 11.1764 6.04267 11.2862 6.35465 11.1382C6.67981 10.9838 6.67845 10.9912 6.70453 9.21926L6.72798 7.62464H9.72962H12.7313L12.7547 9.21926C12.7808 10.9912 12.7794 10.9838 13.1046 11.1382C13.4166 11.2862 13.775 11.1764 13.9507 10.8789C14.0386 10.7301 14.0454 10.6217 14.0586 9.15566L14.0727 7.5913L14.7855 7.60978C15.5823 7.63046 15.6936 7.66409 15.935 7.95693C16.0121 8.0505 16.0987 8.21451 16.1272 8.3214C16.2012 8.59778 17.4555 22.6827 17.4289 22.9377C17.4106 23.1121 17.3736 23.1783 17.2151 23.3189C17.1062 23.4156 16.9331 23.5119 16.8146 23.5417C16.6652 23.5794 14.6421 23.5943 9.69374 23.5943C2.03957 23.5943 2.51631 23.6137 2.20283 23.2902C2.08192 23.1654 2.04379 23.0813 2.02831 22.9052C2.00378 22.626 3.25851 8.58756 3.33116 8.32815C3.39152 8.11283 3.56309 7.86801 3.73066 7.75822C3.91212 7.63928 4.10394 7.61114 4.76754 7.60598L5.38663 7.60119L5.4007 9.16064Z" fill="#282828"/>
</svg>
