<svg width="14" height="18" viewBox="0 0 14 18" fill="none" xmlns="http://www.w3.org/2000/svg">
<path fill-rule="evenodd" clip-rule="evenodd" d="M4.56581 0.760036C4.31237 0.838504 4.14717 0.979305 4.05795 1.19284C4.01407 1.29782 4.00352 1.48302 4.00352 2.14902V2.97499L2.39231 2.98511L0.781103 2.99523L0.609681 3.10123C0.362146 3.25434 0.228306 3.51548 0.25288 3.79739C0.274431 4.04461 0.38904 4.23527 0.599907 4.3748L0.746439 4.4718H6.99181H13.2372L13.3837 4.3748C13.5946 4.23527 13.7092 4.04461 13.7307 3.79739C13.7553 3.51548 13.6215 3.25434 13.3739 3.10123L13.2025 2.99523L11.5913 2.98511L9.98009 2.97499V2.14902C9.98009 1.48302 9.96954 1.29782 9.92567 1.19284C9.85606 1.0262 9.75231 0.915919 9.57579 0.820926C9.43612 0.745762 9.41882 0.7452 7.04454 0.738977C5.7297 0.735567 4.61426 0.745024 4.56581 0.760036ZM8.50352 2.60852V2.97766H6.99181H5.48009V2.60852V2.23938H6.99181H8.50352V2.60852ZM1.51119 5.2787C1.42626 5.3062 1.29505 5.38892 1.21964 5.46257C0.96381 5.71239 0.976818 5.43677 0.987927 10.3643L0.997841 14.7726L1.09631 15.0873C1.42485 16.1369 2.16724 16.8622 3.21251 17.1547L3.49376 17.2334H6.99181H10.4899L10.7711 17.1547C11.3842 16.9831 11.9578 16.616 12.3344 16.1541C12.5561 15.8822 12.8023 15.3938 12.9067 15.0187L12.9851 14.7374L12.9966 10.378C13.0051 7.14909 12.9975 5.96959 12.9671 5.82946C12.937 5.69077 12.8882 5.59912 12.7842 5.48623C12.4427 5.11586 11.8605 5.17534 11.607 5.60654L11.5094 5.77258L11.4918 10.2023L11.4742 14.632L11.3978 14.8184C11.2501 15.1785 10.9309 15.4996 10.5777 15.6432L10.3844 15.7218H6.99181H3.59923L3.38829 15.6372C3.09428 15.5194 2.71178 15.1369 2.59394 14.8429L2.50938 14.632L2.49181 10.2023L2.47423 5.77258L2.3766 5.60654C2.20251 5.31034 1.83895 5.17264 1.51119 5.2787ZM5.24018 6.77752C5.07414 6.828 4.8247 7.08943 4.77833 7.26162C4.752 7.35946 4.74314 8.26822 4.74979 10.1941L4.75938 12.9848L4.85638 13.1313C4.99592 13.3422 5.18657 13.4567 5.43379 13.4783C5.71574 13.5029 5.97684 13.369 6.12995 13.1214L6.23595 12.95V10.1171V7.2843L6.13832 7.11825C5.96517 6.82365 5.57518 6.67571 5.24018 6.77752ZM8.15249 6.83423C8.01137 6.90862 7.93129 6.98181 7.85366 7.10732L7.74767 7.27878V10.1144V12.95L7.85366 13.1214C8.00677 13.369 8.26787 13.5029 8.54982 13.4783C8.79704 13.4567 8.9877 13.3421 9.12723 13.1313L9.22423 12.9847V10.1144V7.24401L9.12723 7.09748C8.9877 6.88661 8.79704 6.772 8.54982 6.75045C8.37236 6.73498 8.31983 6.74606 8.15249 6.83423Z" fill="#A7A7A7"/>
</svg>
