<svg width="24" height="15" viewBox="0 0 24 15" fill="none" xmlns="http://www.w3.org/2000/svg">
<path fill-rule="evenodd" clip-rule="evenodd" d="M4.25592 0.0871976C4.11515 0.163604 3.98578 0.375385 3.98578 0.529463C3.98578 0.583604 4.01779 0.689729 4.05688 0.765385C4.21035 1.06215 3.84065 1.04509 10.1241 1.04509C13.6995 1.04509 15.8451 1.06178 15.8451 1.08953C15.8451 1.11399 15.6858 1.82593 15.4911 2.67156C15.0378 4.63946 13.5951 10.9857 13.5951 11.0114C13.5951 11.0222 13.0016 11.0253 12.2761 11.0185L10.957 11.006L10.901 10.816C10.6314 9.90287 9.79134 9.18906 8.82238 9.04984C8.4877 9.00175 8.37806 9.00503 8.04895 9.07309C7.83801 9.11668 7.53238 9.2199 7.36978 9.30245C6.80142 9.59087 6.28274 10.2022 6.11334 10.7834L6.04162 11.0295H5.18821C4.25053 11.0295 4.19409 11.0439 4.05168 11.3192C3.94954 11.5167 3.99956 11.7433 4.17848 11.8938C4.32009 12.013 4.32703 12.0138 5.17724 12.0138H6.03342L6.09229 12.2131C6.40138 13.2592 7.41829 14.0312 8.4839 14.0288C9.56015 14.0263 10.5247 13.3456 10.8589 12.3527L10.965 12.0373H13.9962H17.0274L17.1312 12.3238C17.5076 13.3635 18.4331 14.0295 19.5014 14.0295C20.1414 14.0295 20.7831 13.7684 21.2339 13.3245C21.5423 13.0208 21.7206 12.7411 21.8715 12.3238L21.9751 12.0373L22.4375 12.0252C22.9396 12.0122 23.0856 11.9641 23.1806 11.7805C23.2681 11.6112 24.0015 7.62217 24.0008 7.31931C23.9994 6.75076 23.7279 5.8322 23.3942 5.26707C22.7792 4.2256 21.7522 3.45367 20.5745 3.14781C20.21 3.05312 20.0441 3.04417 18.3142 3.02598C16.9162 3.01126 16.4523 2.99256 16.4671 2.95149C16.478 2.92131 16.6091 2.35454 16.7586 1.69201C17.005 0.599869 17.0246 0.473448 16.9688 0.338776C16.935 0.257073 16.8424 0.150619 16.763 0.102197C16.6236 0.0172597 16.4053 0.0142603 10.5014 0.0159009C5.18184 0.017354 4.36748 0.026682 4.25592 0.0871976ZM2.24085 2.10254C2.07473 2.19268 2.01703 2.30692 2.01703 2.5456C2.01703 2.69776 2.0467 2.76948 2.15404 2.87682L2.29106 3.01384H4.5014H6.71174L6.84876 2.87682C7.08496 2.64062 7.01896 2.23506 6.71934 2.08182C6.64818 2.04545 5.96835 2.03003 4.49278 2.03134C2.70956 2.03293 2.3481 2.04432 2.24085 2.10254ZM20.5092 4.18093C21.8859 4.63956 22.7868 5.69659 22.9702 7.06853C23.0113 7.37546 22.9922 7.51318 22.6741 9.20134L22.3341 11.006L22.1482 11.0197L21.9623 11.0333L21.8832 10.7618C21.5607 9.65631 20.3031 8.87242 19.1417 9.05293C18.2292 9.19482 17.3652 9.92415 17.1196 10.7598L17.0405 11.0293L15.8349 11.0294C14.8906 11.0295 14.6339 11.0168 14.6501 10.9709C14.674 10.9033 16.2201 4.10204 16.2201 4.06445C16.2201 4.05076 17.1113 4.04673 18.2006 4.05559C20.1281 4.07115 20.1899 4.07453 20.5092 4.18093ZM1.23032 5.10263C0.950385 5.29867 0.925354 5.68084 1.17848 5.89384L1.32107 6.01384H4.01643H6.71174L6.84876 5.87682C7.08496 5.64062 7.01896 5.23506 6.71934 5.08182C6.64748 5.04507 5.82871 5.02946 3.97584 5.02946C1.65843 5.02946 1.32196 5.03842 1.23032 5.10263ZM0.160776 8.18884C-0.0693807 8.41899 -0.0508182 8.72265 0.206104 8.93078C0.298635 9.00573 0.545057 9.01182 3.50892 9.01281L6.71174 9.01384L6.84876 8.87682C7.08496 8.64062 7.01896 8.23506 6.71934 8.08182C6.64692 8.04479 5.69503 8.02946 3.46856 8.02946H0.320151L0.160776 8.18884ZM9.03332 10.1461C9.4011 10.2836 9.74803 10.6327 9.88945 11.0075C10.218 11.8782 9.64776 12.8566 8.73271 12.9919C8.09878 13.0857 7.49695 12.7915 7.1976 12.2415C7.03926 11.9506 6.98217 11.4009 7.0784 11.0942C7.33448 10.2782 8.22815 9.84479 9.03332 10.1461ZM19.9586 10.1163C20.3259 10.2254 20.6367 10.4983 20.8217 10.8743C20.9581 11.1514 20.9776 11.2366 20.9753 11.5442C20.9722 11.9651 20.8664 12.2363 20.5868 12.5395C20.3042 12.8462 20.024 12.9698 19.5644 12.9903C19.2274 13.0054 19.1484 12.9923 18.8966 12.8793C18.3447 12.6316 18.032 12.1512 18.0275 11.5442C18.0252 11.2373 18.0448 11.1512 18.1795 10.8775C18.5104 10.205 19.2262 9.89879 19.9586 10.1163Z" fill="#490013"/>
</svg>
