<svg width="20" height="20" viewBox="0 0 20 20" fill="none" xmlns="http://www.w3.org/2000/svg">
<path fill-rule="evenodd" clip-rule="evenodd" d="M1.34744 0.0295641C0.853937 0.153865 0.370352 0.553043 0.136909 1.02874L0 1.3077V9.96979C0 18.2182 0.00413862 18.642 0.0871022 18.8446C0.296484 19.3559 0.691283 19.7266 1.21399 19.9027C1.51014 20.0025 1.56134 20.0034 6.89536 20.0034C12.8729 20.0034 12.5531 20.0201 13.0537 19.6812C13.3732 19.4649 13.6285 19.1193 13.7448 18.7456C13.8237 18.4921 13.8353 18.293 13.8353 17.191C13.8353 15.9562 13.8328 15.9234 13.7258 15.7648C13.3808 15.2528 12.7498 15.2528 12.4048 15.7648C12.2984 15.9227 12.2954 15.9598 12.2954 17.0991C12.2954 18.2068 12.2901 18.2763 12.1991 18.3672C12.1041 18.4622 12.0387 18.4634 6.90561 18.4634C1.7725 18.4634 1.70715 18.4622 1.61211 18.3672C1.51664 18.2717 1.51587 18.2068 1.51587 9.99385C1.51587 1.78089 1.51664 1.71598 1.61211 1.6205C1.70715 1.52546 1.7725 1.52426 6.90561 1.52426C12.0387 1.52426 12.1041 1.52546 12.1991 1.6205C12.2901 1.71145 12.2954 1.78089 12.2954 2.88863C12.2954 4.02789 12.2984 4.06504 12.4048 4.22288C12.7415 4.72254 13.3515 4.73606 13.7105 4.2518C13.8058 4.12336 13.812 4.04738 13.8255 2.84027C13.8373 1.78215 13.8266 1.51795 13.7625 1.29173C13.6181 0.782685 13.2261 0.340389 12.7044 0.0978504C12.5206 0.0124326 12.263 0.0080533 7.00185 0.000786776C3.97133 -0.0033999 1.42684 0.00954509 1.34744 0.0295641ZM15.9331 6.19413C15.7309 6.25462 15.4774 6.52084 15.4203 6.73258C15.3131 7.13079 15.3524 7.19157 16.4022 8.2494L17.3692 9.22389H12.0242H6.67924L6.51687 9.33332C6.00485 9.67836 6.00485 10.3093 6.51687 10.6544L6.67924 10.7638H12.0253H17.3714L16.4265 11.7142C15.9069 12.237 15.4577 12.712 15.4284 12.7698C15.3992 12.8276 15.3752 12.9706 15.3752 13.0875C15.3752 13.5884 15.9073 13.9614 16.3932 13.801C16.5089 13.7629 17.0471 13.255 18.2481 12.051C19.7206 10.5747 19.9442 10.3314 19.9728 10.1743C20.0523 9.73798 20.0781 9.77143 18.2471 7.9356C16.3789 6.06252 16.3773 6.06126 15.9331 6.19413Z" fill="#A7A7A7"/>
</svg>
