<svg width="14" height="24" viewBox="0 0 14 24" fill="none" xmlns="http://www.w3.org/2000/svg">
<path fill-rule="evenodd" clip-rule="evenodd" d="M8.38507 0.0277141C6.45186 0.34441 4.94251 1.40484 4.11696 3.02632C3.5591 4.12199 3.37496 5.14171 3.37261 7.14839L3.37154 8.04581L2.14158 8.06319C0.768435 8.08264 0.657669 8.10522 0.330055 8.43283C-0.00552338 8.76841 5.62669e-06 8.72357 5.62669e-06 11.1005C5.62669e-06 13.1451 0.00389475 13.241 0.0954503 13.4433C0.213104 13.7032 0.385158 13.8892 0.630493 14.0216C0.807231 14.1169 0.890774 14.1235 2.09337 14.1372L3.36882 14.1516L3.38189 18.6119C3.39482 23.0275 3.39595 23.0742 3.49313 23.2829C3.60774 23.5291 3.83063 23.7593 4.06931 23.8782C4.22328 23.9548 4.43061 23.9635 6.39371 23.9761C7.95283 23.9861 8.60482 23.9745 8.75068 23.9342C9.0083 23.863 9.37869 23.5322 9.49264 23.2716C9.57539 23.0823 9.58054 22.8427 9.59296 18.6091L9.60603 14.1461H11.0489C12.7075 14.1461 12.7974 14.1308 13.1382 13.79C13.4974 13.4308 13.4979 13.4264 13.4824 11.0243C13.4692 8.96328 13.4669 8.91793 13.3662 8.72985C13.2454 8.5041 12.9963 8.2739 12.7526 8.16281C12.6039 8.09505 12.3623 8.08086 11.091 8.06525L9.60331 8.04698V7.09342C9.60331 6.56902 9.62337 6.08711 9.64792 6.02259C9.73394 5.79632 9.81168 5.784 11.3135 5.75898C12.6163 5.73729 12.7346 5.72834 12.93 5.63702C13.2036 5.50915 13.3856 5.32341 13.522 5.03272C13.6318 4.79886 13.6319 4.79493 13.6324 2.874C13.6329 0.703745 13.6274 0.661669 13.2973 0.321498C12.9722 -0.0134249 13.0424 -0.00499096 10.6473 0.00213107C9.46753 0.00564523 8.4495 0.0171717 8.38507 0.0277141ZM12.2272 2.82405V4.29358L11.0675 4.3215C10.4297 4.33687 9.80437 4.37136 9.67786 4.3982C9.11391 4.51778 8.62291 4.8714 8.40644 5.3139C8.20322 5.72923 8.15412 6.16578 8.15346 7.56292C8.15276 8.99477 8.17253 9.09509 8.50511 9.34886L8.68218 9.48399L10.385 9.4979L12.0879 9.51177L12.0755 11.1144L12.0632 12.717L10.353 12.7404C8.44369 12.7666 8.49916 12.7567 8.28049 13.1084L8.17422 13.2793L8.16162 17.9297L8.14901 22.5801H6.48742H4.82584L4.81323 17.9263L4.80063 13.2724L4.67595 13.084C4.45418 12.7489 4.40835 12.7404 2.81391 12.7404H1.40361V11.1264V9.51243L2.84816 9.49819L4.29272 9.48399L4.46472 9.3527C4.80367 9.09406 4.79744 9.13304 4.82837 7.07093C4.85522 5.27956 4.85995 5.20576 4.97587 4.77155C5.37822 3.26421 6.13442 2.33745 7.43114 1.76258C8.15684 1.44087 8.74754 1.36914 10.7396 1.3608L12.2272 1.35457V2.82405Z" fill="#282828"/>
</svg>
