<svg width="24" height="22" viewBox="0 0 24 22" fill="none" xmlns="http://www.w3.org/2000/svg">
<path fill-rule="evenodd" clip-rule="evenodd" d="M5.97422 0.330912C5.06447 0.469147 4.43438 0.660022 3.74766 1.00554C2.47435 1.64622 1.34719 2.82213 0.728255 4.15563C0.246755 5.19307 0.00127043 6.3116 4.80413e-06 7.47363C-0.0028077 10.1201 1.22911 12.4337 4.1334 15.2362C4.97785 16.0511 6.02668 16.9789 8.76329 19.3321C10.4668 20.797 11.252 21.4427 11.431 21.5258C11.7825 21.6891 12.2127 21.6892 12.5643 21.526C12.9458 21.3489 18.3901 16.6565 19.8619 15.2362C22.7662 12.4337 23.9981 10.1201 23.9953 7.47363C23.9932 5.47858 23.2834 3.65187 21.9875 2.30641C21.0346 1.31712 19.8744 0.681069 18.5292 0.410506C17.94 0.292006 16.6264 0.2936 16.0758 0.413459C15.5866 0.519959 14.9819 0.730241 14.5729 0.936069C13.7836 1.33338 12.9021 2.05376 12.3202 2.77713C12.1607 2.97541 12.0155 3.13769 11.9977 3.13769C11.9798 3.13769 11.8346 2.97541 11.6751 2.77713C10.7222 1.5926 9.42455 0.762959 8.01329 0.435912C7.62366 0.345631 6.31946 0.278506 5.97422 0.330912ZM7.68676 1.82191C9.0084 2.1288 10.1074 2.93515 11.0086 4.25894C11.1917 4.52805 11.3971 4.79182 11.4648 4.84516C11.7418 5.06299 12.1812 5.07729 12.4771 4.87807C12.5614 4.82126 12.7821 4.55407 12.9674 4.28435C14.2551 2.40987 15.9128 1.54591 17.8263 1.75193C20.2684 2.01485 22.0773 3.8388 22.5014 6.46582C22.5877 7.00047 22.5767 8.10396 22.4798 8.64551C22.2645 9.84748 21.6299 11.098 20.5768 12.3955C19.9892 13.1195 18.3894 14.7082 17.1522 15.7966C15.5508 17.2052 12.0443 20.2002 11.9965 20.2002C11.9506 20.2002 8.06555 16.8765 6.63165 15.6104C5.5404 14.6469 3.97655 13.0819 3.41893 12.3955C2.3663 11.0997 1.73096 9.8479 1.51557 8.64551C1.41858 8.10396 1.40761 7.00047 1.49391 6.46582C1.90772 3.90232 3.70083 2.04696 6.04454 1.75713C6.49974 1.70088 7.30163 1.73247 7.68676 1.82191Z" fill="#282828"/>
</svg>
