<svg width="19" height="20" viewBox="0 0 19 20" fill="none" xmlns="http://www.w3.org/2000/svg">
<path fill-rule="evenodd" clip-rule="evenodd" d="M8.83309 0.0706658C8.45999 0.138356 8.11697 0.257176 7.78492 0.433765C7.39565 0.640742 5.17745 2.26664 5.06965 2.42397C4.97165 2.56701 4.92806 2.85496 4.97032 3.08033C5.00461 3.26313 5.26448 3.54792 5.45427 3.61069C5.64219 3.67283 5.93591 3.66439 6.07364 3.59288C6.13406 3.56151 6.68297 3.16388 7.29344 2.70927C7.9039 2.25461 8.46687 1.85027 8.54452 1.81062C8.93176 1.6131 9.51117 1.54759 9.95278 1.65141C10.0709 1.67918 10.2819 1.76203 10.4215 1.8355C10.7793 2.02373 16.9156 6.92502 17.1014 7.17094C17.1786 7.27324 17.276 7.44901 17.3177 7.56154C17.3912 7.75965 17.3937 7.90437 17.3937 12.1018C17.3937 16.2005 17.3897 16.4502 17.3218 16.6718C17.1238 17.3174 16.6627 17.8855 16.1224 18.1494C15.625 18.3923 15.4982 18.4099 14.2455 18.4099C13.201 18.4099 13.119 18.4049 13.0331 18.3353L12.9408 18.2607L12.9196 16.1773C12.899 14.1679 12.8952 14.0847 12.8127 13.8371C12.584 13.1508 11.9898 12.6043 11.2808 12.4285C10.9835 12.3548 8.04065 12.3518 7.73012 12.4249C7.15364 12.5607 6.57771 13.0131 6.32647 13.5275C6.11977 13.9507 6.07903 14.248 6.09305 15.2298L6.10539 16.0923L6.22257 16.2813C6.53224 16.781 7.24094 16.781 7.5506 16.2813L7.66778 16.0923L7.68731 15.1654C7.70536 14.309 7.71278 14.232 7.78488 14.1524C7.9596 13.9596 7.98108 13.9571 9.49187 13.9572C11.0822 13.9573 11.1177 13.9628 11.2514 14.2306C11.3138 14.3553 11.3197 14.5402 11.3198 16.3413C11.3199 17.9878 11.3298 18.3535 11.3797 18.545C11.5711 19.2798 12.1851 19.8451 12.932 19.9741C13.3211 20.0412 15.4714 20.0005 15.8117 19.9195C17.414 19.5383 18.5763 18.347 18.8732 16.782C18.9226 16.5215 18.9325 15.7936 18.9375 12.0421C18.9433 7.64817 18.9426 7.60724 18.8609 7.29746C18.713 6.73679 18.4139 6.21273 18.032 5.84537C17.6992 5.52532 11.5684 0.666951 11.2894 0.502237C10.9717 0.314711 10.4156 0.116873 10.0309 0.0545341C9.69725 0.000475472 9.18158 0.0074281 8.83309 0.0706658ZM1.99452 5.09175C1.85062 5.1496 1.00095 5.80772 0.831005 5.99294C0.486146 6.36881 0.252569 6.79937 0.102111 7.33652L0.0145392 7.64899L0.00106364 11.7307C-0.00749044 14.3206 0.00235258 15.9914 0.0279758 16.3021C0.0911353 17.0684 0.284598 17.6455 0.675664 18.2342C1.27566 19.1373 2.23813 19.7677 3.29931 19.9528C3.8063 20.0412 8.09139 20.0394 8.30375 19.9507C8.61529 19.8206 8.79173 19.5624 8.79645 19.2299C8.80055 18.9415 8.65529 18.6885 8.3991 18.5379L8.21462 18.4295L5.85151 18.4076C3.32219 18.3842 3.40098 18.3905 2.94222 18.1722C2.4719 17.9484 2.01522 17.489 1.81961 17.0429C1.602 16.5465 1.61661 16.8753 1.60384 12.1836C1.59068 7.35827 1.57677 7.63036 1.85816 7.20645C1.95874 7.0549 2.12287 6.90338 2.44316 6.66637C2.79481 6.40619 2.90402 6.30245 2.96292 6.17273C3.15295 5.75417 2.97534 5.2849 2.56143 5.11199C2.40324 5.0459 2.13263 5.03621 1.99452 5.09175Z" fill="#490013"/>
</svg>
