<svg width="24" height="24" viewBox="0 0 24 24" fill="none" xmlns="http://www.w3.org/2000/svg">
<path fill-rule="evenodd" clip-rule="evenodd" d="M5.529 0.0747472C4.46848 0.23996 3.48643 0.653881 2.63329 1.29528C1.22402 2.35473 0.33798 3.83485 0.0771358 5.56536C-0.0257119 6.24767 -0.0257119 17.7472 0.0771358 18.4295C0.33798 20.16 1.22402 21.6402 2.63329 22.6996C3.50466 23.3547 4.47091 23.7571 5.57047 23.9229C6.25278 24.0257 17.7523 24.0257 18.4346 23.9229C19.5342 23.7571 20.5004 23.3547 21.3718 22.6996C22.7811 21.6402 23.6671 20.16 23.928 18.4295C24.0308 17.7472 24.0308 6.24767 23.928 5.56536C23.7622 4.46581 23.3598 3.49955 22.7047 2.62818C21.6453 1.21891 20.1651 0.332874 18.4346 0.0720296C17.7865 -0.0256641 6.1578 -0.0232276 5.529 0.0747472ZM18.0703 1.4567C18.67 1.52469 19.1188 1.65851 19.7103 1.94564C20.7819 2.46583 21.5342 3.21814 22.0544 4.28972C22.3415 4.88123 22.4753 5.33001 22.5433 5.92966C22.6081 6.50172 22.6081 17.4932 22.5433 18.0652C22.4753 18.6649 22.3415 19.1137 22.0544 19.7052C21.5342 20.7768 20.7819 21.5291 19.7103 22.0493C19.1188 22.3364 18.67 22.4702 18.0703 22.5382C17.4983 22.603 6.50683 22.603 5.93477 22.5382C5.33511 22.4702 4.88633 22.3364 4.29483 22.0493C3.22325 21.5291 2.47093 20.7768 1.95074 19.7052C1.66361 19.1137 1.5298 18.6649 1.46181 18.0652C1.39696 17.4932 1.39696 6.50172 1.46181 5.92966C1.5298 5.33001 1.66361 4.88123 1.95074 4.28972C2.47093 3.21814 3.22325 2.46583 4.29483 1.94564C4.86403 1.66933 5.34434 1.52136 5.86969 1.46045C6.37798 1.40146 17.5532 1.39804 18.0703 1.4567ZM18.3585 3.14406C17.6628 3.26078 17.0381 3.84989 16.8455 4.57086C16.4724 5.96776 17.798 7.29335 19.1949 6.92024C19.5523 6.82474 19.8196 6.66984 20.0843 6.40483C21.1578 5.32992 20.6151 3.47697 19.135 3.16332C18.7888 3.08994 18.695 3.0876 18.3585 3.14406ZM19.0741 4.6916C19.3333 4.95076 19.2496 5.37063 18.9105 5.51232C18.4889 5.6885 18.0772 5.27683 18.2534 4.85522C18.3403 4.64714 18.4957 4.54743 18.7332 4.54743C18.8904 4.54743 18.9589 4.57639 19.0741 4.6916ZM11.042 5.50806C7.16327 6.12538 4.68931 9.85611 5.65129 13.6374C6.22968 15.911 8.08904 17.7703 10.3626 18.3487C13.6257 19.1788 16.9854 17.4202 18.1546 14.2699C19.4086 10.8914 17.664 7.10325 14.275 5.84537C13.2822 5.4769 12.0474 5.34809 11.042 5.50806ZM13.0334 6.96704C15.0468 7.37872 16.5997 8.93722 17.0419 10.9901C17.1511 11.4972 17.1511 12.4977 17.0419 13.0048C16.5974 15.0681 15.0732 16.5923 13.0099 17.0368C12.5028 17.146 11.5023 17.146 10.9952 17.0368C8.93188 16.5923 7.40767 15.0681 6.96325 13.0048C6.85403 12.4977 6.85403 11.4972 6.96325 10.9901C7.57007 8.17292 10.2487 6.39766 13.0334 6.96704Z" fill="#282828"/>
</svg>
