<svg width="18" height="17" viewBox="0 0 18 17" fill="none" xmlns="http://www.w3.org/2000/svg">
<path fill-rule="evenodd" clip-rule="evenodd" d="M4.48067 0.998184C3.79835 1.10186 3.32578 1.24502 2.81075 1.50415C1.85576 1.98467 1.01039 2.8666 0.546191 3.86672C0.185066 4.6448 0.000952822 5.4837 3.60309e-06 6.35522C-0.00210577 8.34004 0.921835 10.0752 3.10005 12.1771C3.73339 12.7883 4.52001 13.4842 6.57246 15.2491C7.85008 16.3477 8.43901 16.832 8.57324 16.8944C8.83684 17.0168 9.15951 17.0169 9.42325 16.8945C9.70931 16.7617 13.7925 13.2424 14.8964 12.1771C17.0747 10.0752 17.9986 8.34004 17.9965 6.35522C17.9949 4.85894 17.4625 3.4889 16.4906 2.47981C15.7759 1.73784 14.9058 1.2608 13.8969 1.05788C13.455 0.969005 12.4698 0.9702 12.0568 1.06009C11.6899 1.13997 11.2364 1.29768 10.9297 1.45205C10.3377 1.75004 9.67659 2.29032 9.24016 2.83285C9.12052 2.98156 9.01164 3.10327 8.99825 3.10327C8.98485 3.10327 8.87597 2.98156 8.75634 2.83285C8.04164 1.94445 7.06841 1.32222 6.00996 1.07693C5.71775 1.00922 4.73959 0.95888 4.48067 0.998184Z" fill="#EEC5E7"/>
</svg>
