<svg width="22" height="22" viewBox="0 0 22 22" fill="none" xmlns="http://www.w3.org/2000/svg">
<path fill-rule="evenodd" clip-rule="evenodd" d="M10.7027 0.0237784C10.1768 0.130754 10.084 0.205974 8.27083 1.99418C7.31553 2.93637 6.44208 3.81155 6.3298 3.93896L6.12572 4.17067H7.57903H9.03234L9.04533 6.44019L9.05833 8.70966H11.0072H12.9561L12.9691 6.44019L12.9821 4.17067H14.4614H15.9406L15.3864 3.5975C15.0816 3.28223 14.1964 2.39554 13.4194 1.62705C12.1345 0.356267 11.9817 0.22095 11.7309 0.131974C11.3933 0.0122174 10.9757 -0.031734 10.7027 0.0237784ZM2.3372 7.90659C1.36151 8.88239 0.478369 9.78552 0.374679 9.91352C-0.0444797 10.4311 -0.118687 11.1795 0.186137 11.8154C0.313914 12.0819 0.491212 12.286 1.27361 13.0669C2.76775 14.5583 4.1541 15.9268 4.17074 15.9268C4.17919 15.9268 4.18613 13.7207 4.18613 11.0244C4.18613 8.328 4.16924 6.12429 4.14865 6.12717C4.12807 6.13004 3.31289 6.93078 2.3372 7.90659ZM17.8782 11.0244V15.9153L18.966 14.8357C21.704 12.1182 21.6614 12.1632 21.8366 11.802C21.9868 11.4924 22.0008 11.4236 22 11C21.9992 10.5993 21.9807 10.498 21.8633 10.2518C21.7214 9.95406 21.577 9.80264 18.9666 7.21302L17.8782 6.13336V11.0244ZM9.03334 15.5602V17.8278L7.54885 17.8407L6.0644 17.8536L7.98245 19.7695C9.70251 21.4875 9.93432 21.7016 10.228 21.8426C10.5194 21.9827 10.6023 22 10.9822 22C11.3638 22 11.4445 21.983 11.7429 21.8396C12.0436 21.6951 12.2641 21.4927 13.9655 19.8003C15.0044 18.7669 15.8619 17.9006 15.8711 17.8753C15.8812 17.8471 15.3245 17.8293 14.4344 17.8293H12.9811V15.561V13.2927H11.0072H9.03334V15.5602Z" fill="#DA291C"/>
</svg>
