<svg width="20" height="12" viewBox="0 0 20 12" fill="none" xmlns="http://www.w3.org/2000/svg">
<path fill-rule="evenodd" clip-rule="evenodd" d="M8.74788 0.417069C5.44563 0.833352 2.50406 2.7043 0.83746 5.44846C0.629301 5.79124 0.614531 5.83127 0.629067 6.01375C0.648097 6.25194 0.889666 6.66854 1.4025 7.34752C2.97887 9.43457 5.24463 10.8694 7.81603 11.4089C9.16158 11.6912 10.7912 11.6973 12.1194 11.4248C14.8989 10.8547 17.3707 9.20647 18.9272 6.88526C19.4708 6.0746 19.4845 5.98808 19.1559 5.44458C17.5597 2.80487 14.739 0.952179 11.5614 0.456135C11.0048 0.369267 9.31355 0.345773 8.74788 0.417069ZM10.5845 2.16561C12.2167 2.41313 13.4806 3.62222 13.8335 5.27372C13.8608 5.40186 13.8832 5.72514 13.8832 5.99212C13.8832 6.25909 13.8608 6.58237 13.8335 6.71052C13.4921 8.30827 12.329 9.46412 10.7212 9.80336C10.5923 9.83054 10.267 9.85279 9.99832 9.85279C9.72967 9.85279 9.40436 9.83054 9.27541 9.80336C7.66762 9.46412 6.50452 8.30827 6.16315 6.71052C6.09903 6.4103 6.09903 5.57393 6.16315 5.27372C6.41863 4.07791 7.16256 3.08683 8.20047 2.55945C8.66063 2.32564 8.98898 2.22635 9.60756 2.13404C9.83514 2.10006 10.2381 2.11311 10.5845 2.16561ZM9.41499 3.41182C8.89286 3.52436 8.27405 3.90293 7.94467 4.31145C7.28878 5.12483 7.15952 6.21948 7.61092 7.13767C7.89384 7.71309 8.29269 8.10363 8.88578 8.38594C10.1543 8.98978 11.7364 8.44496 12.3599 7.18955C12.7568 6.39042 12.7568 5.59381 12.3599 4.79468C11.92 3.90911 10.991 3.34748 9.97878 3.35528C9.80685 3.3566 9.55313 3.38204 9.41499 3.41182Z" fill="#D1D1D2"/>
</svg>
