<svg width="20" height="14" viewBox="0 0 20 14" fill="none" xmlns="http://www.w3.org/2000/svg">
<path fill-rule="evenodd" clip-rule="evenodd" d="M15.9966 0.17009C15.9536 0.193408 15.4498 0.678863 14.8771 1.24884L13.8358 2.28517L13.4708 2.12679C12.2227 1.58533 10.9474 1.33719 9.66809 1.38687C7.73117 1.46214 5.70648 2.27787 3.69656 3.79282C2.4025 4.76823 0.716656 6.46234 0.641495 6.86296C0.580515 7.18796 0.657239 7.3142 1.41584 8.13696C2.31538 9.11268 3.35548 9.99575 4.49891 10.7547C4.76369 10.9304 4.98812 11.0806 4.99769 11.0885C5.00722 11.0964 4.59974 11.5198 4.09213 12.0294C3.48823 12.6357 3.15989 12.9938 3.14219 13.0656C3.10031 13.2353 3.14469 13.5029 3.23595 13.631C3.39349 13.8522 3.7775 13.9442 4.01541 13.8177C4.18139 13.7294 16.7885 1.09655 16.8347 0.97223C16.9407 0.686909 16.838 0.397292 16.5661 0.21407C16.4218 0.116854 16.1353 0.0947079 15.9966 0.17009ZM14.5683 5.06854L13.1058 6.5312L13.1013 7.00947C13.0957 7.59647 13.0109 7.94312 12.7473 8.45537C12.5988 8.74377 12.4913 8.88665 12.2087 9.17115C11.8429 9.53955 11.5653 9.72718 11.1267 9.90259C10.7608 10.049 10.204 10.1378 9.84388 10.1073L9.55089 10.0825L8.4979 11.1369C7.91876 11.7168 7.45417 12.2005 7.46549 12.2118C7.50628 12.2527 8.3811 12.4663 8.78569 12.5344C9.36619 12.6319 10.719 12.6298 11.2697 12.5305C13.3452 12.156 15.352 11.1095 17.3248 9.37292C17.8852 8.87962 18.7514 7.99561 19.1052 7.55593C19.4395 7.14039 19.4595 6.8885 19.1854 6.54186C18.929 6.21752 18.2325 5.47151 17.8294 5.08948C17.319 4.60574 16.3142 3.77115 16.0723 3.63011C16.0495 3.61679 15.3727 4.2641 14.5683 5.06854ZM10.7794 3.99304C11.0504 4.06908 11.5729 4.30281 11.6593 4.38663C11.7013 4.42725 7.4676 8.68776 7.40576 8.66714C7.33838 8.64468 7.07477 8.07408 6.9934 7.7745C6.87421 7.33584 6.85417 6.93139 6.93007 6.49609C7.05242 5.79429 7.30963 5.3061 7.82813 4.79127C8.11209 4.50935 8.25437 4.40225 8.53521 4.25906C8.72858 4.16048 8.95465 4.05803 9.03758 4.03147C9.5691 3.8611 10.2553 3.84594 10.7794 3.99304Z" fill="#D1D1D2"/>
</svg>
