<svg width="20" height="16" viewBox="0 0 20 16" fill="none" xmlns="http://www.w3.org/2000/svg">
<g clip-path="url(#clip0_154_5971)">
<path d="M17.4203 16H2.57974C1.89717 16 1.24242 15.7199 0.758896 15.221C0.27537 14.7221 0.00248206 14.045 0 13.3382V2.65209C0.00495237 1.94693 0.27893 1.2724 0.762189 0.77559C1.24545 0.278776 1.89879 -1.86487e-05 2.57974 9.35595e-10L17.4203 9.35595e-10C18.1045 9.35595e-10 18.7606 0.281463 19.2444 0.782471C19.7282 1.28348 20 1.96299 20 2.67152V13.3576C19.9926 14.0611 19.7175 14.7331 19.2345 15.2279C18.7515 15.7226 18.0996 16 17.4203 16ZM2.57974 1.45719C2.26874 1.45719 1.97049 1.58513 1.75058 1.81286C1.53067 2.04059 1.40713 2.34946 1.40713 2.67152V13.3576C1.40713 13.6797 1.53067 13.9886 1.75058 14.2163C1.97049 14.444 2.26874 14.5719 2.57974 14.5719H17.4203C17.7296 14.572 18.0265 14.4454 18.2461 14.2197C18.4658 13.9941 18.5904 13.6877 18.5929 13.3673V2.68124C18.5941 2.52096 18.5647 2.362 18.5063 2.21355C18.4479 2.0651 18.3618 1.93008 18.2528 1.81629C18.1437 1.7025 18.0141 1.61218 17.8712 1.55055C17.7283 1.48892 17.575 1.45719 17.4203 1.45719H2.57974Z" fill="#490013"/>
<path d="M19.296 5.12933H0.703125V6.58653H19.296V5.12933Z" fill="#490013"/>
<path d="M8.0779 11.2981H5.39497C5.20837 11.2981 5.02942 11.2214 4.89748 11.0847C4.76553 10.9481 4.69141 10.7628 4.69141 10.5695C4.69141 10.3763 4.76553 10.191 4.89748 10.0543C5.02942 9.9177 5.20837 9.84094 5.39497 9.84094H8.0779C8.26449 9.84094 8.44345 9.9177 8.57539 10.0543C8.70734 10.191 8.78146 10.3763 8.78146 10.5695C8.78146 10.7628 8.70734 10.9481 8.57539 11.0847C8.44345 11.2214 8.26449 11.2981 8.0779 11.2981Z" fill="#490013"/>
</g>
<defs>
<clipPath id="clip0_154_5971">
<rect width="20" height="16" fill="white"/>
</clipPath>
</defs>
</svg>
