<svg width="20" height="20" viewBox="0 0 20 20" fill="none" xmlns="http://www.w3.org/2000/svg">
<g clip-path="url(#clip0_154_5967)">
<path d="M16.201 1.48295H3.79898C3.61557 1.48295 3.43967 1.40483 3.30998 1.26577C3.18028 1.12672 3.10742 0.938124 3.10742 0.741473C3.10742 0.544822 3.18028 0.356226 3.30998 0.217172C3.43967 0.0781193 3.61557 0 3.79898 0L16.201 0C16.3844 0 16.5603 0.0781193 16.69 0.217172C16.8197 0.356226 16.8926 0.544822 16.8926 0.741473C16.8926 0.938124 16.8197 1.12672 16.69 1.26577C16.5603 1.40483 16.3844 1.48295 16.201 1.48295Z" fill="#490013"/>
<path d="M18.3858 20H7.81872C7.39076 20 6.98032 19.8177 6.6777 19.4933C6.37509 19.1688 6.20508 18.7287 6.20508 18.2699V6.58428C6.20508 6.38763 6.27794 6.19903 6.40763 6.05998C6.53733 5.92093 6.71323 5.84281 6.89664 5.84281C7.08005 5.84281 7.25596 5.92093 7.38565 6.05998C7.51534 6.19903 7.5882 6.38763 7.5882 6.58428V18.2699C7.5882 18.3354 7.61249 18.3983 7.65572 18.4447C7.69895 18.491 7.75759 18.5171 7.81872 18.5171H18.3858C18.4469 18.5171 18.5056 18.491 18.5488 18.4447C18.592 18.3983 18.6163 18.3354 18.6163 18.2699V4.06327C18.6139 3.37802 18.3583 2.72173 17.9055 2.2381C17.4527 1.75448 16.8396 1.48294 16.2005 1.48295C16.0178 1.48039 15.8433 1.40144 15.7141 1.26294C15.5849 1.12444 15.5113 0.937328 15.5089 0.741473C15.5113 0.545618 15.5849 0.358506 15.7141 0.220004C15.8433 0.0815019 16.0178 0.00256052 16.2005 0C17.2064 -3.177e-06 18.1713 0.427775 18.8835 1.1895C19.5957 1.95123 19.997 2.98472 19.9995 4.06327V18.2699C19.9995 18.7287 19.8294 19.1688 19.5268 19.4933C19.2242 19.8177 18.8138 20 18.3858 20V20Z" fill="#490013"/>
<path d="M15.077 15.0569H11.1213C10.9378 15.0569 10.7619 14.9787 10.6322 14.8397C10.5025 14.7006 10.4297 14.512 10.4297 14.3154C10.4297 14.1187 10.5025 13.9301 10.6322 13.7911C10.7619 13.652 10.9378 13.5739 11.1213 13.5739H15.077C15.2604 13.5739 15.4363 13.652 15.566 13.7911C15.6957 13.9301 15.7686 14.1187 15.7686 14.3154C15.7686 14.512 15.6957 14.7006 15.566 14.8397C15.4363 14.9787 15.2604 15.0569 15.077 15.0569V15.0569Z" fill="#490013"/>
<path d="M15.077 10.7464H11.1213C10.9378 10.7464 10.7619 10.6683 10.6322 10.5293C10.5025 10.3902 10.4297 10.2016 10.4297 10.005C10.4297 9.80831 10.5025 9.61971 10.6322 9.48066C10.7619 9.34161 10.9378 9.26349 11.1213 9.26349H15.077C15.2604 9.26349 15.4363 9.34161 15.566 9.48066C15.6957 9.61971 15.7686 9.80831 15.7686 10.005C15.7686 10.2016 15.6957 10.3902 15.566 10.5293C15.4363 10.6683 15.2604 10.7464 15.077 10.7464Z" fill="#490013"/>
<path d="M6.89719 7.32577H1.61365C1.18643 7.32317 0.777395 7.14006 0.475301 6.81616C0.173207 6.49227 0.00242056 6.05371 0 5.59566L0 4.06328C0.0480282 3.01901 0.468754 2.03453 1.17507 1.31366C1.88139 0.59279 2.81921 0.190735 3.79437 0.190735C4.76954 0.190735 5.70736 0.59279 6.41368 1.31366C7.12 2.03453 7.54072 3.01901 7.58875 4.06328V6.58429C7.58636 6.78015 7.51273 6.96726 7.38356 7.10576C7.25438 7.24426 7.07986 7.32321 6.89719 7.32577V7.32577ZM3.79899 1.48296C3.48217 1.48166 3.16822 1.54744 2.87517 1.67653C2.58212 1.80562 2.31573 1.99548 2.09127 2.23521C1.86682 2.47495 1.68872 2.75984 1.5672 3.07355C1.44568 3.38725 1.38312 3.7236 1.38313 4.06328V5.59566C1.38313 5.66121 1.40741 5.72408 1.45064 5.77043C1.49387 5.81678 1.55251 5.84282 1.61365 5.84282H6.22407V4.06328C6.22408 3.72276 6.16122 3.3856 6.03912 3.07125C5.91703 2.75689 5.7381 2.47156 5.51267 2.23169C5.28724 1.99183 5.01975 1.80217 4.72563 1.67367C4.43151 1.54516 4.11658 1.48035 3.79899 1.48296V1.48296Z" fill="#490013"/>
<path d="M15.077 6.43601H11.1213C10.9378 6.43601 10.7619 6.35789 10.6322 6.21884C10.5025 6.07978 10.4297 5.89119 10.4297 5.69454C10.4297 5.49789 10.5025 5.30929 10.6322 5.17024C10.7619 5.03118 10.9378 4.95306 11.1213 4.95306H15.077C15.2604 4.95306 15.4363 5.03118 15.566 5.17024C15.6957 5.30929 15.7686 5.49789 15.7686 5.69454C15.7686 5.89119 15.6957 6.07978 15.566 6.21884C15.4363 6.35789 15.2604 6.43601 15.077 6.43601Z" fill="#490013"/>
</g>
<defs>
<clipPath id="clip0_154_5967">
<rect width="20" height="20" fill="white"/>
</clipPath>
</defs>
</svg>
