<svg width="20" height="20" viewBox="0 0 20 20" fill="none" xmlns="http://www.w3.org/2000/svg">
<g clip-path="url(#clip0_154_5963)">
<path d="M17.4057 20H2.59434C1.90628 20 1.2464 19.7223 0.759864 19.2281C0.273331 18.7339 0 18.0636 0 17.3646L0 4.79155C0.00244336 4.6017 0.0777728 4.42033 0.209938 4.28607C0.342103 4.15182 0.520654 4.0753 0.707547 4.07281H17.4057C18.0937 4.07281 18.7536 4.35047 19.2401 4.84469C19.7267 5.33892 20 6.00924 20 6.70818V17.3646C20 18.0636 19.7267 18.7339 19.2401 19.2281C18.7536 19.7223 18.0937 20 17.4057 20ZM1.41509 5.54862V17.3646C1.41509 17.6823 1.53934 17.987 1.76049 18.2117C1.98164 18.4363 2.28158 18.5625 2.59434 18.5625H17.4057C17.7184 18.5625 18.0184 18.4363 18.2395 18.2117C18.4607 17.987 18.5849 17.6823 18.5849 17.3646V6.70818C18.5849 6.39048 18.4607 6.08579 18.2395 5.86114C18.0184 5.63649 17.7184 5.51028 17.4057 5.51028L1.41509 5.54862Z" fill="#490013"/>
<path d="M19.292 14.8635H11.1505C10.6501 14.8635 10.1701 14.6615 9.8163 14.3021C9.46246 13.9427 9.26367 13.4552 9.26367 12.9468V11.126C9.26367 10.6177 9.46246 10.1302 9.8163 9.77078C10.1701 9.41135 10.6501 9.20942 11.1505 9.20942H19.292C19.3852 9.20813 19.4778 9.22584 19.5642 9.2615C19.6507 9.29716 19.7292 9.35006 19.7951 9.41706C19.8611 9.48406 19.9131 9.5638 19.9482 9.65159C19.9834 9.73937 20.0008 9.83341 19.9995 9.92815V14.1064C20.0061 14.2043 19.9925 14.3025 19.9598 14.3948C19.927 14.4871 19.8758 14.5715 19.8093 14.6427C19.7428 14.7138 19.6625 14.7702 19.5734 14.8082C19.4844 14.8462 19.3885 14.865 19.292 14.8635V14.8635ZM11.1505 10.6852C11.0345 10.6852 10.9231 10.7313 10.8402 10.8137C10.7573 10.8961 10.7095 11.0083 10.7071 11.126V12.9756C10.7071 13.095 10.7538 13.2096 10.8369 13.2941C10.9201 13.3785 11.0329 13.426 11.1505 13.426H18.5844V10.6852H11.1505Z" fill="#490013"/>
<path d="M14.65 5.54863H0.706601C0.610422 5.54877 0.515225 5.52899 0.426826 5.4905C0.338426 5.45201 0.258681 5.39561 0.192461 5.32475C0.126241 5.2539 0.0749367 5.17008 0.041683 5.0784C0.00842939 4.98673 -0.00607568 4.88913 -0.000946037 4.79157V3.01869C-0.000946037 2.21808 0.312143 1.45027 0.869444 0.884153C1.42675 0.318039 2.18261 0 2.97075 0L13.7066 0C14.1437 0.00251567 14.5622 0.180012 14.8713 0.493976C15.1803 0.80794 15.3551 1.23304 15.3575 1.67705V4.79157C15.3627 4.88913 15.3482 4.98673 15.3149 5.0784C15.2817 5.17008 15.2304 5.2539 15.1641 5.32475C15.0979 5.39561 15.0182 5.45201 14.9298 5.4905C14.8414 5.52899 14.7462 5.54877 14.65 5.54863V5.54863ZM1.44245 4.11116H13.9424V1.67705C13.9424 1.61351 13.9176 1.55257 13.8734 1.50764C13.8291 1.46271 13.7692 1.43747 13.7066 1.43747H2.97075C2.55792 1.43747 2.16199 1.60406 1.87007 1.9006C1.57815 2.19713 1.41415 2.59932 1.41415 3.01869L1.44245 4.11116Z" fill="#490013"/>
</g>
<defs>
<clipPath id="clip0_154_5963">
<rect width="20" height="20" fill="white"/>
</clipPath>
</defs>
</svg>
