<svg width="37" height="42" viewBox="0 0 37 42" fill="none" xmlns="http://www.w3.org/2000/svg">
<path d="M4.265 2.34255C4.03726 2.20753 3.77785 2.13518 3.5131 2.13287C3.24835 2.13056 2.98771 2.19836 2.75765 2.32939C2.52759 2.46042 2.33631 2.65 2.20324 2.87888C2.07017 3.10777 2.00005 3.36779 2 3.63255V38.3675C2.00005 38.6323 2.07017 38.8923 2.20324 39.1212C2.33631 39.3501 2.52759 39.5397 2.75765 39.6707C2.98771 39.8017 3.24835 39.8695 3.5131 39.8672C3.77785 39.8649 4.03726 39.7926 4.265 39.6575L33.5725 22.2901C33.7963 22.1572 33.9818 21.9685 34.1105 21.7423C34.2393 21.5161 34.3071 21.2603 34.3071 21.0001C34.3071 20.7398 34.2393 20.484 34.1105 20.2578C33.9818 20.0316 33.7963 19.8429 33.5725 19.7101L4.265 2.34255Z" fill="#490013" stroke="#490013" stroke-width="3.75" stroke-linecap="round" stroke-linejoin="round"/>
</svg>
