<svg width="20" height="15" viewBox="0 0 20 15" fill="none" xmlns="http://www.w3.org/2000/svg">
<path d="M10.1389 5.74866C10.7917 5.74866 11.3208 5.21951 11.3208 4.56677C11.3208 3.91404 10.7917 3.38489 10.1389 3.38489C9.48618 3.38489 8.95703 3.91404 8.95703 4.56677C8.95703 5.21951 9.48618 5.74866 10.1389 5.74866Z" fill="#282828"/>
<path d="M9.66945 10.9302C9.57627 10.9306 9.48395 10.9124 9.3979 10.8767C9.31185 10.841 9.2338 10.7884 9.16832 10.7221C9.03553 10.5892 8.96094 10.4089 8.96094 10.221C8.96094 10.0331 9.03553 9.85286 9.16832 9.7199L15.2952 3.593C15.4281 3.45884 15.6089 3.38297 15.7977 3.38209C15.9866 3.3812 16.168 3.45537 16.3022 3.58827C16.4363 3.72118 16.5122 3.90194 16.5131 4.09078C16.514 4.27962 16.4398 4.46108 16.3069 4.59524L10.1706 10.7221C10.1054 10.7889 10.0274 10.8417 9.9413 10.8775C9.85517 10.9132 9.76269 10.9311 9.66945 10.9302Z" fill="#282828"/>
<path d="M15.3303 10.9301C15.9831 10.9301 16.5122 10.4009 16.5122 9.74817C16.5122 9.09543 15.9831 8.56628 15.3303 8.56628C14.6776 8.56628 14.1484 9.09543 14.1484 9.74817C14.1484 10.4009 14.6776 10.9301 15.3303 10.9301Z" fill="#282828"/>
<path d="M18.3954 14.315H1.65985C1.4292 14.3106 1.2019 14.259 0.991895 14.1635C0.781894 14.068 0.593632 13.9306 0.438673 13.7597C0.283713 13.5888 0.165327 13.388 0.0907862 13.1697C0.0162454 12.9514 -0.0128765 12.7202 0.00520929 12.4902V11.157C0.00982163 10.7841 0.138847 10.4234 0.371808 10.1322C0.604769 9.84104 0.928318 9.63599 1.2911 9.54964C1.84126 9.42959 2.33382 9.125 2.68701 8.68644C3.0402 8.24787 3.23278 7.7017 3.23278 7.13859C3.23278 6.57549 3.0402 6.02932 2.68701 5.59075C2.33382 5.15218 1.84126 4.84759 1.2911 4.72754C0.934454 4.64286 0.615475 4.44342 0.383167 4.15987C0.15086 3.87632 0.0180739 3.52434 0.00520929 3.158V1.65464C0.00769134 1.21657 0.182816 0.797145 0.492585 0.487376C0.802354 0.177607 1.22178 0.00248206 1.65985 0H18.3954C18.8334 0.00248206 19.2529 0.177607 19.5626 0.487376C19.8724 0.797145 20.0475 1.21657 20.05 1.65464V12.6604C20.0475 13.0984 19.8724 13.5179 19.5626 13.8276C19.2529 14.1374 18.8334 14.3125 18.3954 14.315ZM1.65985 1.41826C1.59716 1.41826 1.53704 1.44317 1.49271 1.4875C1.44838 1.53183 1.42347 1.59195 1.42347 1.65464V3.158C1.42752 3.21526 1.45148 3.26931 1.4912 3.31075C1.53093 3.3522 1.5839 3.37844 1.64094 3.38492C2.49288 3.58609 3.25195 4.069 3.79517 4.75543C4.33839 5.44186 4.63394 6.29159 4.63394 7.16696C4.63394 8.04233 4.33839 8.89206 3.79517 9.57848C3.25195 10.2649 2.49288 10.7478 1.64094 10.949C1.5839 10.9555 1.53093 10.9817 1.4912 11.0232C1.45148 11.0646 1.42752 11.1187 1.42347 11.1759V12.5091C1.42347 12.6036 1.42347 12.9157 1.65985 12.9157H18.3954C18.458 12.9157 18.5182 12.8907 18.5625 12.8464C18.6068 12.8021 18.6317 12.742 18.6317 12.6793V1.65464C18.6317 1.59195 18.6068 1.53183 18.5625 1.4875C18.5182 1.44317 18.458 1.41826 18.3954 1.41826H1.65985Z" fill="#282828"/>
</svg>
