<svg width="24" height="24" viewBox="0 0 24 24" fill="none" xmlns="http://www.w3.org/2000/svg">
<path fill-rule="evenodd" clip-rule="evenodd" d="M10.2324 0.0474213C6.15075 0.541917 2.75186 2.94994 1.03492 6.56358C0.596607 7.48605 0.27573 8.53916 0.0894158 9.66653C-0.030133 10.3898 -0.0297108 12.1681 0.0901196 12.9031C0.670691 16.4636 2.72836 19.3762 5.91765 21.152C7.78422 22.1913 10.1772 22.7141 12.3217 22.5511C14.4541 22.389 16.3151 21.7614 18.015 20.6311C18.3739 20.3925 18.6839 20.1972 18.7037 20.1972C18.7236 20.1972 19.5658 21.0046 20.5751 21.9914C21.5845 22.9782 22.4975 23.8331 22.6041 23.8911C23.1791 24.2042 23.9296 23.8061 23.9922 23.1548C24.0337 22.7229 23.9319 22.5573 23.139 21.766C20.8363 19.4683 19.2759 17.9722 19.1235 17.9163C18.7273 17.7707 18.4447 17.8626 17.9177 18.3084C16.1096 19.8382 13.8852 20.6642 11.5693 20.6659C7.88754 20.6685 4.51746 18.5909 2.9341 15.3423C0.894494 11.1578 2.26912 6.19554 6.19476 3.57156C8.00235 2.36332 10.319 1.78266 12.4678 1.99927C15.8701 2.34231 18.767 4.32967 20.2011 7.30457C21.191 9.35812 21.3924 11.5805 20.7889 13.7915C20.6359 14.3519 20.6481 14.5869 20.8446 14.8668C21.2501 15.4442 22.1287 15.4268 22.4759 14.8345C22.624 14.5818 22.8929 13.5407 22.9995 12.807C23.0998 12.1174 23.1134 10.5712 23.025 9.92452C22.5733 6.62319 20.776 3.75168 18.0209 1.92952C16.5548 0.959906 15.063 0.389093 13.2269 0.0951728C12.5917 -0.00647498 10.9 -0.0334935 10.2324 0.0474213Z" fill="#282828"/>
</svg>
