<svg width="18" height="18" viewBox="0 0 18 18" fill="none" xmlns="http://www.w3.org/2000/svg">
<path fill-rule="evenodd" clip-rule="evenodd" d="M4.12067 0.861307C4.03367 0.919901 3.91452 1.03906 3.85592 1.12606L3.74933 1.28421V7.9917V14.6991L2.82355 13.7788C2.31439 13.2726 1.85169 12.8351 1.79539 12.8066C1.49811 12.656 1.07591 12.7996 0.855922 13.1261C0.735125 13.3053 0.713703 13.6455 0.812094 13.8228C0.899516 13.9802 4.03198 17.1096 4.18058 17.188C4.34333 17.2738 4.65608 17.2735 4.81808 17.1875C4.97066 17.1064 8.1238 13.9465 8.19753 13.8008C8.348 13.5034 8.20442 13.0813 7.87799 12.8613C7.70389 12.744 7.37891 12.7176 7.20327 12.8066C7.14697 12.8351 6.68431 13.2726 6.17511 13.7788L5.24933 14.6991V7.9917V1.28421L5.14273 1.12606C4.89397 0.756869 4.4473 0.641182 4.12067 0.861307ZM13.1478 0.843354C12.9733 0.952807 9.89384 4.03948 9.81205 4.18676C9.7137 4.3639 9.73512 4.70417 9.85592 4.88337C10.0759 5.20985 10.4981 5.35343 10.7954 5.20287C10.8517 5.17432 11.3143 4.73684 11.8235 4.23064L12.7493 3.31029V10.0177V16.7252L12.8559 16.8834C13.1839 17.3701 13.7782 17.3832 14.1278 16.9114L14.2259 16.7791L14.2493 10.0555L14.2728 3.3319L15.1634 4.22614C15.6532 4.718 16.111 5.1506 16.1806 5.18754C16.6361 5.42923 17.2517 5.03806 17.2477 4.5095C17.2467 4.39085 17.2192 4.24559 17.1866 4.18667C17.0991 4.02921 13.9667 0.899791 13.8181 0.821416C13.6396 0.727385 13.3156 0.737979 13.1478 0.843354Z" fill="#282828"/>
</svg>
