<svg width="16" height="22" viewBox="0 0 16 22" fill="none" xmlns="http://www.w3.org/2000/svg">
<path fill-rule="evenodd" clip-rule="evenodd" d="M7.56012 0.0454605C5.63212 0.240773 3.86625 1.05433 2.44778 2.40083C0.829518 3.93691 0.00746911 5.82216 7.58025e-05 8.01403C-0.0047081 9.43626 0.216308 10.3794 0.843435 11.6128C1.17892 12.2725 8.37121 22 8.52352 22C8.65059 22 15.4295 12.8887 15.3885 12.773C15.3719 12.7263 13.5016 12.2904 11.2323 11.8042C6.61404 10.8148 6.33301 10.7235 5.50739 9.9454C3.75709 8.29571 3.76727 5.73571 5.53044 4.14368C6.65484 3.12843 8.15516 2.74942 9.62486 3.10937C11.2543 3.50842 12.5635 4.89115 12.7975 6.46003C13.0056 7.85659 12.4958 9.12391 11.3251 10.1201C10.9625 10.4287 10.8181 10.6 10.8983 10.6262C11.1838 10.7198 14.1473 11.3265 14.319 11.3265C14.4616 11.3265 14.6094 11.1682 14.9246 10.6779C17.1941 7.1478 15.7394 2.50953 11.8024 0.72284C10.4763 0.121034 9.05488 -0.105931 7.56012 0.0454605Z" fill="#FABC26"/>
</svg>
