<svg width="20" height="22" viewBox="0 0 20 22" fill="none" xmlns="http://www.w3.org/2000/svg">
<path fill-rule="evenodd" clip-rule="evenodd" d="M8.99458 0.315702C6.62415 0.770202 4.85448 2.51419 4.35039 4.89244C4.23648 5.43 4.23437 6.49612 4.34617 7.0597C4.43612 7.51336 4.65189 8.16098 4.83376 8.52337C5.23628 9.32526 6.05425 10.2584 6.78109 10.7449C8.74464 12.0592 11.2074 12.0676 13.1977 10.7668C13.6823 10.4501 14.4807 9.64434 14.8039 9.14592C15.462 8.13098 15.7453 7.16273 15.7403 5.94525C15.7373 5.22806 15.6642 4.78036 15.4434 4.128C14.8256 2.30264 13.3103 0.902905 11.411 0.403265C11.0338 0.30403 10.8342 0.282937 10.143 0.269155C9.58694 0.258046 9.217 0.273046 8.99458 0.315702ZM11.0815 1.88367C12.0479 2.14772 12.9146 2.75245 13.459 3.54262C13.7612 3.98109 13.8987 4.25836 14.0582 4.74994C14.1695 5.09301 14.1903 5.24606 14.2078 5.8515C14.2262 6.48966 14.2172 6.59695 14.1099 7.0125C13.7119 8.5545 12.5344 9.72356 10.9966 10.1034C10.4258 10.2444 9.57728 10.244 9.0039 10.1025C7.46209 9.72169 6.29392 8.55783 5.89229 7.00228C5.78795 6.59831 5.77867 6.48605 5.797 5.8515C5.81439 5.24948 5.83572 5.09105 5.94522 4.74994C6.40403 3.32091 7.52725 2.24269 8.92426 1.89033C9.45297 1.75697 9.4645 1.7558 10.1196 1.77211C10.5489 1.78284 10.8331 1.8158 11.0815 1.88367ZM8.86619 13.282C5.92037 13.6193 3.43872 14.9816 1.92611 17.0916C1.57309 17.5841 1.08634 18.5751 0.931982 19.1157C0.664185 20.0538 0.590591 21.0801 0.770357 21.371C1.05733 21.8352 1.70828 21.8404 2.0485 21.3811C2.12186 21.2821 2.15134 21.1361 2.18406 20.7099C2.29065 19.3206 2.88072 18.0824 3.92308 17.0609C6.52731 14.5086 11.156 13.9955 14.512 15.8871C15.7851 16.6046 16.7357 17.58 17.2997 18.7474C17.6046 19.3784 17.7649 19.9821 17.8207 20.7099C17.8534 21.1361 17.8829 21.2821 17.9563 21.3811C18.2965 21.8404 18.9475 21.8352 19.2344 21.371C19.3125 21.2446 19.3305 21.1372 19.3303 20.7991C19.3295 19.0423 18.4286 17.1661 16.9249 15.7899C15.5335 14.5164 13.7241 13.677 11.6665 13.3502C11.1151 13.2627 9.39995 13.2209 8.86619 13.282Z" fill="#282828"/>
</svg>
