<svg width="301" height="680" viewBox="0 0 301 680" fill="none" xmlns="http://www.w3.org/2000/svg">
<mask id="mask0_16_3978" style="mask-type:luminance" maskUnits="userSpaceOnUse" x="-119" y="-135" width="210" height="210">
<path d="M91 75H-119V-135H91V75Z" fill="white"/>
</mask>
<g mask="url(#mask0_16_3978)">
<path d="M26.2639 74.9965H33.6139C31.5839 74.1215 29.5189 73.3865 27.3489 72.7915L26.2639 74.9965Z" fill="#F4D6CB"/>
<path d="M-5.72606 33.4164C-6.91606 31.0014 -9.36606 29.4964 -12.0261 29.4614C-14.7211 29.4614 -17.1711 30.9664 -18.3611 33.3814L-39.2211 74.9964H-24.2761C-16.6811 66.0014 -2.40105 65.9664 5.22895 74.9964H9.63894C10.8756 73.9697 12.0539 72.8731 13.1739 71.7064L-5.72606 33.4164Z" fill="#F4D6CB"/>
<path d="M82.474 -1.33862C79.779 -1.33862 77.329 0.16637 76.139 2.58137L51.779 51.2314C55.559 53.0164 59.619 54.3114 63.889 55.0464H64.274L67.494 48.3964C72.044 38.9464 82.369 35.6214 91.014 38.3864V7.13137L88.774 2.61637C87.584 0.201372 85.134 -1.30362 82.474 -1.33862Z" fill="#F4D6CB"/>
</g>
<mask id="mask1_16_3978" style="mask-type:luminance" maskUnits="userSpaceOnUse" x="91" y="-135" width="210" height="210">
<path d="M301 75H91V-135H301V75Z" fill="white"/>
</mask>
<g mask="url(#mask1_16_3978)">
<path d="M236.264 74.9965H243.614C241.584 74.1215 239.519 73.3865 237.349 72.7915L236.264 74.9965Z" fill="#F4D6CB"/>
<path d="M204.274 33.4164C203.084 31.0014 200.634 29.4964 197.974 29.4614C195.279 29.4614 192.829 30.9664 191.639 33.3814L170.779 74.9964H185.724C193.319 66.0014 207.599 65.9664 215.229 74.9964H219.639C220.876 73.9697 222.054 72.8731 223.174 71.7064L204.274 33.4164Z" fill="#F4D6CB"/>
<path d="M101.339 46.4015C103.614 44.7565 105.714 42.9015 107.674 40.9065L91.014 7.13147V38.3865C95.074 39.6815 98.784 42.3415 101.339 46.4015Z" fill="#F4D6CB"/>
<path d="M140.644 -17.9636C133.469 -3.50859 112.819 -3.64859 105.784 -18.1736L105.504 -18.7336C101.724 -16.4936 98.294 -13.7986 95.249 -10.6486L114.429 27.6414C115.619 30.0564 118.069 31.5614 120.764 31.5614C123.424 31.5614 125.874 30.0214 127.064 27.6414L151.109 -21.0436C148.694 -22.1636 146.174 -23.0736 143.549 -23.8086L140.644 -17.9636Z" fill="#F4D6CB"/>
</g>
<mask id="mask2_16_3978" style="mask-type:luminance" maskUnits="userSpaceOnUse" x="-119" y="75" width="210" height="210">
<path d="M91 285H-119V75H91V285Z" fill="white"/>
</mask>
<g mask="url(#mask2_16_3978)">
<path d="M78.449 143.492L75.544 149.337C68.369 163.792 47.719 163.652 40.684 149.127L40.404 148.567C36.624 150.807 33.194 153.502 30.149 156.652L49.329 194.942C50.519 197.357 52.969 198.862 55.664 198.862C58.324 198.862 60.774 197.322 61.964 194.942L86.009 146.257C83.594 145.137 81.074 144.227 78.449 143.492Z" fill="#F4D6CB"/>
<path d="M57.939 147.902C60.214 146.257 62.314 144.401 64.274 142.406L45.374 104.117C44.184 101.702 41.734 100.196 39.074 100.161C36.379 100.161 33.929 101.667 32.739 104.082L8.37901 152.731C12.159 154.516 16.219 155.812 20.489 156.547H20.874L24.094 149.896C30.814 136.001 49.994 135.302 57.939 147.902Z" fill="#F4D6CB"/>
<path d="M-10.416 78.4265L-10.696 77.8665C-14.476 80.1065 -17.906 82.8015 -20.951 85.9515L-1.771 124.241C-0.580997 126.656 1.86899 128.161 4.56399 128.161C7.22399 128.161 9.67399 126.621 10.864 124.241L34.909 75.5565C34.4657 75.3698 34.034 75.1831 33.614 74.9965H26.264L24.444 78.6365C17.269 93.0915 -3.381 92.9515 -10.416 78.4265Z" fill="#F4D6CB"/>
<path d="M6.83896 77.2015C7.79563 76.5015 8.72896 75.7665 9.63896 74.9965H5.22897C5.81231 75.6731 6.34896 76.4081 6.83896 77.2015Z" fill="#F4D6CB"/>
<path d="M26.2639 284.997H33.6139C31.5839 284.122 29.5189 283.387 27.3489 282.792L26.2639 284.997Z" fill="#F4D6CB"/>
<path d="M-5.72606 243.416C-6.91606 241.001 -9.36606 239.496 -12.0261 239.461C-14.7211 239.461 -17.1711 240.966 -18.3611 243.381L-39.2211 284.996H-24.2761C-16.6811 276.001 -2.40105 275.966 5.22895 284.996H9.63894C10.8756 283.97 12.0539 282.873 13.1739 281.706L-5.72606 243.416Z" fill="#F4D6CB"/>
<path d="M82.474 208.661C79.779 208.661 77.329 210.166 76.139 212.581L51.779 261.231C55.559 263.016 59.619 264.311 63.889 265.046H64.274L67.494 258.396C72.044 248.946 82.369 245.621 91.014 248.386V217.131L88.774 212.616C87.584 210.201 85.134 208.696 82.474 208.661Z" fill="#F4D6CB"/>
<path d="M73.479 195.431C77.259 197.216 81.319 198.511 85.589 199.246H85.974L89.194 192.596C89.719 191.511 90.314 190.496 91.014 189.586V160.396L73.479 195.431Z" fill="#F4D6CB"/>
</g>
<mask id="mask3_16_3978" style="mask-type:luminance" maskUnits="userSpaceOnUse" x="91" y="75" width="210" height="210">
<path d="M301 285H91V75H301V285Z" fill="white"/>
</mask>
<g mask="url(#mask3_16_3978)">
<path d="M162.344 127.636C155.169 142.091 134.519 141.951 127.484 127.426L127.204 126.866C123.424 129.106 119.994 131.801 116.949 134.951L136.129 173.241C137.319 175.656 139.769 177.161 142.464 177.161C145.124 177.161 147.574 175.621 148.764 173.241L172.809 124.556C170.394 123.436 167.874 122.526 165.249 121.791L162.344 127.636Z" fill="#F4D6CB"/>
<path d="M144.739 126.202C147.014 124.557 149.114 122.702 151.074 120.707L132.174 82.4165C130.984 80.0015 128.534 78.4965 125.874 78.4615C123.179 78.4615 120.729 79.9665 119.539 82.3815L95.179 131.032C98.959 132.817 103.019 134.112 107.289 134.847H107.674L110.894 128.197C117.614 114.302 136.794 113.602 144.739 126.202Z" fill="#F4D6CB"/>
<path d="M288.449 143.492L285.544 149.337C278.369 163.792 257.719 163.652 250.684 149.127L250.404 148.567C246.624 150.807 243.194 153.502 240.149 156.652L259.329 194.942C260.519 197.357 262.969 198.862 265.664 198.862C268.324 198.862 270.774 197.322 271.964 194.942L296.009 146.257C293.594 145.137 291.074 144.227 288.449 143.492Z" fill="#F4D6CB"/>
<path d="M267.939 147.902C270.214 146.257 272.314 144.401 274.274 142.406L255.374 104.117C254.184 101.702 251.734 100.196 249.074 100.161C246.379 100.161 243.929 101.667 242.739 104.082L218.379 152.731C222.159 154.516 226.219 155.812 230.489 156.547H230.874L234.094 149.896C240.814 136.001 259.994 135.302 267.939 147.902Z" fill="#F4D6CB"/>
<path d="M199.584 78.4265L199.304 77.8665C195.524 80.1065 192.094 82.8015 189.049 85.9515L208.229 124.241C209.419 126.656 211.869 128.161 214.564 128.161C217.224 128.161 219.674 126.621 220.864 124.241L244.909 75.5565C244.466 75.3698 244.034 75.1831 243.614 74.9965H236.264L234.444 78.6365C227.269 93.0915 206.619 92.9515 199.584 78.4265Z" fill="#F4D6CB"/>
<path d="M216.839 77.2015C217.796 76.5015 218.729 75.7665 219.639 74.9965H215.229C215.812 75.6731 216.349 76.4081 216.839 77.2015Z" fill="#F4D6CB"/>
<path d="M179.389 85.8465H179.774L182.994 79.1965C183.764 77.6215 184.674 76.2215 185.724 74.9965H170.779L167.279 82.0315C171.059 83.8165 175.119 85.1115 179.389 85.8465Z" fill="#F4D6CB"/>
<path d="M236.264 284.997H243.614C241.584 284.122 239.519 283.387 237.349 282.792L236.264 284.997Z" fill="#F4D6CB"/>
<path d="M204.274 243.416C203.084 241.001 200.634 239.496 197.974 239.461C195.279 239.461 192.829 240.966 191.639 243.381L170.779 284.996H185.724C193.319 276.001 207.599 275.966 215.229 284.996H219.639C220.876 283.97 222.054 282.873 223.174 281.706L204.274 243.416Z" fill="#F4D6CB"/>
<path d="M101.339 256.401C103.614 254.756 105.714 252.901 107.674 250.906L91.014 217.131V248.386C95.074 249.681 98.784 252.341 101.339 256.401Z" fill="#F4D6CB"/>
<path d="M140.644 192.037C133.469 206.492 112.819 206.352 105.784 191.827L105.504 191.267C101.724 193.507 98.294 196.202 95.249 199.352L114.429 237.642C115.619 240.057 118.069 241.562 120.764 241.562C123.424 241.562 125.874 240.022 127.064 237.642L151.109 188.957C148.694 187.837 146.174 186.927 143.549 186.192L140.644 192.037Z" fill="#F4D6CB"/>
<path d="M123.039 190.601C125.314 188.956 127.414 187.101 129.374 185.106L110.474 146.816C109.284 144.401 106.834 142.896 104.174 142.861C101.479 142.861 99.029 144.366 97.839 146.781L91.014 160.396V189.586C98.854 178.666 115.724 178.981 123.039 190.601Z" fill="#F4D6CB"/>
</g>
<mask id="mask4_16_3978" style="mask-type:luminance" maskUnits="userSpaceOnUse" x="-119" y="285" width="210" height="210">
<path d="M91 495H-119V285H91V495Z" fill="white"/>
</mask>
<g mask="url(#mask4_16_3978)">
<path d="M78.449 353.492L75.544 359.337C68.369 373.792 47.719 373.652 40.684 359.127L40.404 358.567C36.624 360.807 33.194 363.502 30.149 366.652L49.329 404.942C50.519 407.357 52.969 408.862 55.664 408.862C58.324 408.862 60.774 407.322 61.964 404.942L86.009 356.257C83.594 355.137 81.074 354.227 78.449 353.492Z" fill="#F4D6CB"/>
<path d="M57.939 357.902C60.214 356.257 62.314 354.401 64.274 352.406L45.374 314.117C44.184 311.702 41.734 310.196 39.074 310.161C36.379 310.161 33.929 311.667 32.739 314.082L8.37901 362.731C12.159 364.516 16.219 365.812 20.489 366.547H20.874L24.094 359.896C30.814 346.001 49.994 345.302 57.939 357.902Z" fill="#F4D6CB"/>
<path d="M-10.416 288.426L-10.696 287.866C-14.476 290.106 -17.906 292.801 -20.951 295.951L-1.771 334.241C-0.580997 336.656 1.86899 338.161 4.56399 338.161C7.22399 338.161 9.67399 336.621 10.864 334.241L34.909 285.556C34.4657 285.37 34.034 285.183 33.614 284.996H26.264L24.444 288.636C17.269 303.091 -3.381 302.951 -10.416 288.426Z" fill="#F4D6CB"/>
<path d="M6.83896 287.201C7.79563 286.501 8.72896 285.766 9.63896 284.996H5.22897C5.81231 285.673 6.34896 286.408 6.83896 287.201Z" fill="#F4D6CB"/>
<path d="M26.2639 494.997H33.6139C31.5839 494.122 29.5189 493.387 27.3489 492.792L26.2639 494.997Z" fill="#F4D6CB"/>
<path d="M-5.72606 453.416C-6.91606 451.001 -9.36606 449.496 -12.0261 449.461C-14.7211 449.461 -17.1711 450.966 -18.3611 453.381L-39.2211 494.996H-24.2761C-16.6811 486.001 -2.40105 485.966 5.22895 494.996H9.63894C10.8756 493.97 12.0539 492.873 13.1739 491.706L-5.72606 453.416Z" fill="#F4D6CB"/>
<path d="M82.474 418.661C79.779 418.661 77.329 420.166 76.139 422.581L51.779 471.231C55.559 473.016 59.619 474.311 63.889 475.046H64.274L67.494 468.396C72.044 458.946 82.369 455.621 91.014 458.386V427.131L88.774 422.616C87.584 420.201 85.134 418.696 82.474 418.661Z" fill="#F4D6CB"/>
<path d="M73.479 405.431C77.259 407.216 81.319 408.511 85.589 409.246H85.974L89.194 402.596C89.719 401.511 90.314 400.496 91.014 399.586V370.396L73.479 405.431Z" fill="#F4D6CB"/>
</g>
<mask id="mask5_16_3978" style="mask-type:luminance" maskUnits="userSpaceOnUse" x="91" y="285" width="210" height="210">
<path d="M301 495H91V285H301V495Z" fill="white"/>
</mask>
<g mask="url(#mask5_16_3978)">
<path d="M162.344 337.636C155.169 352.091 134.519 351.951 127.484 337.426L127.204 336.866C123.424 339.106 119.994 341.801 116.949 344.951L136.129 383.241C137.319 385.656 139.769 387.161 142.464 387.161C145.124 387.161 147.574 385.621 148.764 383.241L172.809 334.556C170.394 333.436 167.874 332.526 165.249 331.791L162.344 337.636Z" fill="#F4D6CB"/>
<path d="M144.739 336.201C147.014 334.556 149.114 332.701 151.074 330.706L132.174 292.416C130.984 290.001 128.534 288.496 125.874 288.461C123.179 288.461 120.729 289.966 119.539 292.381L95.179 341.031C98.959 342.816 103.019 344.111 107.289 344.846H107.674L110.894 338.196C117.614 324.301 136.794 323.601 144.739 336.201Z" fill="#F4D6CB"/>
<path d="M199.584 288.426L199.304 287.866C195.524 290.106 192.094 292.801 189.049 295.951L208.229 334.241C209.419 336.656 211.869 338.161 214.564 338.161C217.224 338.161 219.674 336.621 220.864 334.241L244.909 285.556C244.466 285.37 244.034 285.183 243.614 284.996H236.264L234.444 288.636C227.269 303.091 206.619 302.951 199.584 288.426Z" fill="#F4D6CB"/>
<path d="M216.839 287.201C217.796 286.501 218.729 285.766 219.639 284.996H215.229C215.812 285.673 216.349 286.408 216.839 287.201Z" fill="#F4D6CB"/>
<path d="M179.389 295.846H179.774L182.994 289.196C183.764 287.621 184.674 286.221 185.724 284.996H170.779L167.279 292.031C171.059 293.816 175.119 295.111 179.389 295.846Z" fill="#F4D6CB"/>
<path d="M236.264 494.997H243.614C241.584 494.122 239.519 493.387 237.349 492.792L236.264 494.997Z" fill="#F4D6CB"/>
<path d="M204.274 453.416C203.084 451.001 200.634 449.496 197.974 449.461C195.279 449.461 192.829 450.966 191.639 453.381L170.779 494.996H185.724C193.319 486.001 207.599 485.966 215.229 494.996H219.639C220.876 493.97 222.054 492.873 223.174 491.706L204.274 453.416Z" fill="#F4D6CB"/>
<path d="M101.339 466.401C103.614 464.756 105.714 462.901 107.674 460.906L91.014 427.131V458.386C95.074 459.681 98.784 462.341 101.339 466.401Z" fill="#F4D6CB"/>
<path d="M140.644 402.037C133.469 416.492 112.819 416.352 105.784 401.827L105.504 401.267C101.724 403.507 98.294 406.202 95.249 409.352L114.429 447.642C115.619 450.057 118.069 451.562 120.764 451.562C123.424 451.562 125.874 450.022 127.064 447.642L151.109 398.957C148.694 397.837 146.174 396.927 143.549 396.192L140.644 402.037Z" fill="#F4D6CB"/>
<path d="M123.039 400.601C125.314 398.956 127.414 397.101 129.374 395.106L110.474 356.816C109.284 354.401 106.834 352.896 104.174 352.861C101.479 352.861 99.029 354.366 97.839 356.781L91.014 370.396V399.586C98.854 388.666 115.724 388.981 123.039 400.601Z" fill="#F4D6CB"/>
</g>
<mask id="mask6_16_3978" style="mask-type:luminance" maskUnits="userSpaceOnUse" x="-119" y="495" width="210" height="210">
<path d="M91 705H-119V495H91V705Z" fill="white"/>
</mask>
<g mask="url(#mask6_16_3978)">
<path d="M78.449 563.492L75.544 569.337C68.369 583.792 47.719 583.652 40.684 569.127L40.404 568.567C36.624 570.807 33.194 573.502 30.149 576.652L49.329 614.942C50.519 617.357 52.969 618.862 55.664 618.862C58.324 618.862 60.774 617.322 61.964 614.942L86.009 566.257C83.594 565.137 81.074 564.227 78.449 563.492Z" fill="#F4D6CB"/>
<path d="M57.939 567.902C60.214 566.257 62.314 564.401 64.274 562.406L45.374 524.117C44.184 521.702 41.734 520.196 39.074 520.161C36.379 520.161 33.929 521.667 32.739 524.082L8.37901 572.731C12.159 574.516 16.219 575.812 20.489 576.547H20.874L24.094 569.896C30.814 556.001 49.994 555.302 57.939 567.902Z" fill="#F4D6CB"/>
<path d="M-10.416 498.426L-10.696 497.866C-14.476 500.106 -17.906 502.801 -20.951 505.951L-1.771 544.241C-0.580997 546.656 1.86899 548.161 4.56399 548.161C7.22399 548.161 9.67399 546.621 10.864 544.241L34.909 495.556C34.4657 495.37 34.034 495.183 33.614 494.996H26.264L24.444 498.636C17.269 513.091 -3.381 512.951 -10.416 498.426Z" fill="#F4D6CB"/>
<path d="M6.83896 497.201C7.79563 496.501 8.72896 495.766 9.63896 494.996H5.22897C5.81231 495.673 6.34896 496.408 6.83896 497.201Z" fill="#F4D6CB"/>
<path d="M-5.72606 663.416C-6.91606 661.001 -9.36606 659.496 -12.0261 659.461C-14.7211 659.461 -17.1711 660.966 -18.3611 663.381L-39.2211 704.996H-24.2761C-16.6811 696.001 -2.40105 695.966 5.22895 704.996H9.63894C10.8756 703.97 12.0539 702.873 13.1739 701.706L-5.72606 663.416Z" fill="#F4D6CB"/>
<path d="M82.474 628.661C79.779 628.661 77.329 630.166 76.139 632.581L51.779 681.231C55.559 683.016 59.619 684.311 63.889 685.046H64.274L67.494 678.396C72.044 668.946 82.369 665.621 91.014 668.386V637.131L88.774 632.616C87.584 630.201 85.134 628.696 82.474 628.661Z" fill="#F4D6CB"/>
<path d="M73.479 615.431C77.259 617.216 81.319 618.511 85.589 619.246H85.974L89.194 612.596C89.719 611.511 90.314 610.496 91.014 609.586V580.396L73.479 615.431Z" fill="#F4D6CB"/>
</g>
<mask id="mask7_16_3978" style="mask-type:luminance" maskUnits="userSpaceOnUse" x="91" y="495" width="210" height="210">
<path d="M301 705H91V495H301V705Z" fill="white"/>
</mask>
<g mask="url(#mask7_16_3978)">
<path d="M162.344 547.636C155.169 562.091 134.519 561.951 127.484 547.426L127.204 546.866C123.424 549.106 119.994 551.801 116.949 554.951L136.129 593.241C137.319 595.656 139.769 597.161 142.464 597.161C145.124 597.161 147.574 595.621 148.764 593.241L172.809 544.556C170.394 543.436 167.874 542.526 165.249 541.791L162.344 547.636Z" fill="#F4D6CB"/>
<path d="M144.739 546.201C147.014 544.556 149.114 542.701 151.074 540.706L132.174 502.416C130.984 500.001 128.534 498.496 125.874 498.461C123.179 498.461 120.729 499.966 119.539 502.381L95.179 551.031C98.959 552.816 103.019 554.111 107.289 554.846H107.674L110.894 548.196C117.614 534.301 136.794 533.601 144.739 546.201Z" fill="#F4D6CB"/>
<path d="M288.449 563.492L285.544 569.337C278.369 583.792 257.719 583.652 250.684 569.127L250.404 568.567C246.624 570.807 243.194 573.502 240.149 576.652L259.329 614.942C260.519 617.357 262.969 618.862 265.664 618.862C268.324 618.862 270.774 617.322 271.964 614.942L296.009 566.257C293.594 565.137 291.074 564.227 288.449 563.492Z" fill="#F4D6CB"/>
<path d="M267.939 567.902C270.214 566.257 272.314 564.401 274.274 562.406L255.374 524.117C254.184 521.702 251.734 520.196 249.074 520.161C246.379 520.161 243.929 521.667 242.739 524.082L218.379 572.731C222.159 574.516 226.219 575.812 230.489 576.547H230.874L234.094 569.896C240.814 556.001 259.994 555.302 267.939 567.902Z" fill="#F4D6CB"/>
<path d="M199.584 498.426L199.304 497.866C195.524 500.106 192.094 502.801 189.049 505.951L208.229 544.241C209.419 546.656 211.869 548.161 214.564 548.161C217.224 548.161 219.674 546.621 220.864 544.241L244.909 495.556C244.466 495.37 244.034 495.183 243.614 494.996H236.264L234.444 498.636C227.269 513.091 206.619 512.951 199.584 498.426Z" fill="#F4D6CB"/>
<path d="M216.839 497.201C217.796 496.501 218.729 495.766 219.639 494.996H215.229C215.812 495.673 216.349 496.408 216.839 497.201Z" fill="#F4D6CB"/>
<path d="M179.389 505.846H179.774L182.994 499.196C183.764 497.621 184.674 496.221 185.724 494.996H170.779L167.279 502.031C171.059 503.816 175.119 505.111 179.389 505.846Z" fill="#F4D6CB"/>
<path d="M204.274 663.416C203.084 661.001 200.634 659.496 197.974 659.461C195.279 659.461 192.829 660.966 191.639 663.381L170.779 704.996H185.724C193.319 696.001 207.599 695.966 215.229 704.996H219.639C220.876 703.97 222.054 702.873 223.174 701.706L204.274 663.416Z" fill="#F4D6CB"/>
<path d="M101.339 676.401C103.614 674.756 105.714 672.901 107.674 670.906L91.014 637.131V668.386C95.074 669.681 98.784 672.341 101.339 676.401Z" fill="#F4D6CB"/>
<path d="M140.644 612.037C133.469 626.492 112.819 626.352 105.784 611.827L105.504 611.267C101.724 613.507 98.294 616.202 95.249 619.352L114.429 657.642C115.619 660.057 118.069 661.562 120.764 661.562C123.424 661.562 125.874 660.022 127.064 657.642L151.109 608.957C148.694 607.837 146.174 606.927 143.549 606.192L140.644 612.037Z" fill="#F4D6CB"/>
<path d="M123.039 610.601C125.314 608.956 127.414 607.101 129.374 605.106L110.474 566.816C109.284 564.401 106.834 562.896 104.174 562.861C101.479 562.861 99.029 564.366 97.839 566.781L91.014 580.396V609.586C98.854 598.666 115.724 598.981 123.039 610.601Z" fill="#F4D6CB"/>
</g>
</svg>
