<svg width="35" height="40" viewBox="0 0 35 40" fill="none" xmlns="http://www.w3.org/2000/svg">
<path d="M12.2721 23.7414C13.5596 23.7355 14.7324 23.0003 15.3026 21.8429L26.8605 -1.66544C25.7023 -2.20576 24.4913 -2.6516 23.2391 -3L21.837 -0.174397C18.3773 6.80251 8.44791 6.74346 5.07051 -0.274784L4.93529 -0.555278C3.11873 0.525361 1.46089 1.83925 0 3.34801L9.22391 21.8576C9.80004 23.015 10.9817 23.7443 12.2721 23.7414Z" fill="#B6CBE2"/>
<path d="M22.5197 17.2587C21.1915 17.2529 19.9783 17.9691 19.3823 19.1085L7.32559 42.1908C9.20746 43.0316 11.2194 43.6434 13.3252 44H13.5158L15.1072 40.8426C18.4323 34.2493 27.9294 33.913 31.8625 39.8974C32.985 39.1145 34.0349 38.2418 35 37.2937L25.636 19.123C25.0491 17.9836 23.8419 17.2616 22.5167 17.2587H22.5197Z" fill="#B6CBE2"/>
</svg>
