<svg width="1136" height="291" viewBox="0 0 1136 291" fill="none" xmlns="http://www.w3.org/2000/svg">
<path d="M294.771 113.644H313.359L339.546 168.511L367.076 113.644H378.577L342.22 186.727H330.924L294.771 113.644Z" fill="#490013"/>
<path d="M386.189 113.644H452.648V120.028H403.651V143.91H446.993V150.294H403.651V179.318H452.648V185.702H386.189V113.644Z" fill="#490013"/>
<path d="M471.338 177.151C464.353 170.767 460.86 161.499 460.86 149.359C460.86 137.219 464.34 128.309 471.286 122.028C478.233 115.746 488.314 112.605 501.541 112.605C512.978 112.605 521.933 114.721 528.406 118.938C534.879 123.156 538.628 129.283 539.651 137.308H525.988C524.888 131.335 522.291 126.797 518.185 123.669C514.078 120.553 508.705 118.99 502.053 118.99C494.377 118.99 488.544 121.579 484.54 126.758C480.536 131.937 478.527 139.475 478.527 149.346C478.527 159.217 480.548 167.114 484.591 172.408C488.633 177.689 494.48 180.33 502.155 180.33C508.795 180.33 514.155 178.766 518.236 175.651C522.304 172.523 524.901 167.985 525.988 162.011H539.651C538.628 170.036 534.879 176.164 528.406 180.382C521.933 184.599 513.055 186.714 501.746 186.714C488.454 186.714 478.323 183.522 471.338 177.138V177.151Z" fill="#490013"/>
<path d="M550.743 113.644H568.205V143.91H606.315V113.644H623.777V185.702H606.315V150.294H568.205V185.702H550.743V113.644Z" fill="#490013"/>
<path d="M656.027 182.292C649.797 179.343 645.012 175.074 641.699 169.472C638.373 163.883 636.723 157.178 636.723 149.346C636.723 141.513 638.386 135.078 641.699 129.578C645.025 124.092 649.797 119.887 656.027 116.964C662.257 114.054 669.651 112.593 678.21 112.593C686.768 112.593 694.06 114.054 700.29 116.964C706.52 119.887 711.292 124.079 714.618 129.578C717.944 135.065 719.594 141.654 719.594 149.346C719.594 157.037 717.931 163.87 714.618 169.472C711.292 175.062 706.533 179.343 700.341 182.292C694.137 185.24 686.768 186.714 678.21 186.714C669.651 186.714 662.257 185.24 656.027 182.292ZM695.877 172.408C699.919 167.126 701.94 159.435 701.94 149.346C701.94 139.257 699.919 131.937 695.877 126.758C691.834 121.579 685.949 118.99 678.21 118.99C670.47 118.99 664.56 121.579 660.492 126.758C656.411 131.937 654.377 139.475 654.377 149.346C654.377 159.217 656.398 167.113 660.441 172.408C664.483 177.689 670.406 180.33 678.21 180.33C686.013 180.33 691.834 177.689 695.877 172.408Z" fill="#490013"/>
<path d="M797.72 180.548C798.987 183.086 800.164 184.317 801.264 184.253V185.689H784.211C782.906 184.317 781.729 182.561 780.667 180.446C779.606 178.318 778.493 175.638 777.329 172.421C775.614 167.895 774.002 164.357 772.506 161.819C770.996 159.281 769.052 157.537 766.647 156.576H749.901V185.702H732.541V113.644H765.099C775.845 113.644 784.147 115.259 790.006 118.477C795.865 121.707 798.795 127.194 798.795 134.95C798.795 145.449 793.14 152.076 781.844 154.82C784.173 156.255 786.207 158.166 787.959 160.537C789.699 162.909 791.362 165.973 792.936 169.754C794.855 174.421 796.441 178.023 797.708 180.561L797.72 180.548ZM749.901 150.179H765.201C770.408 150.179 774.425 149.115 777.265 146.987C780.105 144.859 781.525 140.847 781.525 134.95C781.525 129.053 780.105 125.258 777.265 123.169C774.425 121.079 770.395 120.028 765.201 120.028H749.901V150.192V150.179Z" fill="#490013"/>
<path d="M827.144 182.292C820.914 179.343 816.129 175.074 812.816 169.472C809.49 163.883 807.839 157.178 807.839 149.346C807.839 141.513 809.502 135.078 812.816 129.578C816.142 124.092 820.914 119.887 827.144 116.964C833.374 114.054 840.768 112.593 849.326 112.593C857.885 112.593 865.177 114.054 871.407 116.964C877.637 119.887 882.409 124.079 885.735 129.578C889.061 135.065 890.711 141.654 890.711 149.346C890.711 157.037 889.048 163.87 885.735 169.472C882.409 175.062 877.65 179.343 871.458 182.292C865.253 185.24 857.885 186.714 849.326 186.714C840.768 186.714 833.374 185.24 827.144 182.292ZM866.993 172.408C871.036 167.126 873.057 159.435 873.057 149.346C873.057 139.257 871.036 131.937 866.993 126.758C862.951 121.579 857.066 118.99 849.326 118.99C841.587 118.99 835.676 121.579 831.608 126.758C827.527 131.937 825.493 139.475 825.493 149.346C825.493 159.217 827.515 167.113 831.557 172.408C835.6 177.689 841.523 180.33 849.326 180.33C857.13 180.33 862.951 177.689 866.993 172.408Z" fill="#490013"/>
<path d="M891.351 113.644H909.938L936.125 168.511L963.655 113.644H975.156L938.799 186.727H927.503L891.351 113.644Z" fill="#490013"/>
<path d="M1018.82 167.472H982.256L973.416 185.689H961.302L998.695 112.605H1009.89L1045.12 185.689H1027.35L1018.83 167.472H1018.82ZM1015.84 161.088L1000.84 128.873L985.339 161.088H1015.85H1015.84Z" fill="#490013"/>
<path d="M132.427 162.14C138.03 162.114 143.134 158.922 145.616 153.897L195.917 51.8288C190.877 49.4828 185.606 47.5471 180.156 46.0344L174.054 58.3026C158.997 88.5948 115.783 88.3384 101.084 57.8667L100.496 56.6489C92.5898 61.3408 85.3746 67.0454 79.0166 73.5961L119.16 153.961C121.668 158.986 126.81 162.152 132.427 162.14Z" fill="#490013"/>
<path d="M175.735 128.861C170.119 128.835 164.989 132.001 162.469 137.039L111.489 239.094C119.446 242.812 127.954 245.517 136.857 247.094H137.663L144.392 233.133C158.452 203.982 198.608 202.495 215.239 228.954C219.985 225.493 224.424 221.634 228.505 217.442L188.911 137.103C186.429 132.065 181.325 128.873 175.722 128.861H175.735Z" fill="#490013"/>
</svg>
