<svg width="600" height="600" viewBox="0 0 600 600" fill="none" xmlns="http://www.w3.org/2000/svg">
<mask id="mask0_8_3894" style="mask-type:luminance" maskUnits="userSpaceOnUse" x="0" y="0" width="600" height="600">
<path d="M600 600H0V0H600V600Z" fill="white"/>
</mask>
<g mask="url(#mask0_8_3894)">
<path d="M203.84 150.39C183.34 191.69 124.34 191.29 104.24 149.79L103.44 148.19C92.6401 154.59 82.8401 162.29 74.1401 171.29L128.94 280.69C132.34 287.59 139.34 291.89 147.04 291.89C154.64 291.89 161.64 287.49 165.04 280.69L233.74 141.59C226.84 138.39 219.64 135.79 212.14 133.69L203.84 150.39Z" fill="#46001A"/>
<path d="M153.54 146.29C160.04 141.59 166.04 136.29 171.64 130.59L117.64 21.19C114.24 14.29 107.24 9.99001 99.6399 9.89001C91.9399 9.89001 84.9399 14.19 81.5399 21.09L11.9399 160.09C22.7399 165.19 34.3399 168.89 46.5399 170.99H47.6399L56.8399 151.99C76.0399 112.29 130.84 110.29 153.54 146.29Z" fill="#46001A"/>
<path d="M564.14 195.69L555.84 212.39C535.34 253.69 476.34 253.29 456.24 211.79L455.44 210.19C444.64 216.59 434.84 224.29 426.14 233.29L480.94 342.69C484.34 349.59 491.34 353.89 499.04 353.89C506.64 353.89 513.64 349.49 517.04 342.69L585.74 203.59C578.84 200.39 571.64 197.79 564.14 195.69Z" fill="#46001A"/>
<path d="M505.54 208.29C512.04 203.59 518.04 198.29 523.64 192.59L469.64 83.19C466.24 76.29 459.24 71.99 451.64 71.89C443.94 71.89 436.94 76.19 433.54 83.09L363.94 222.09C374.74 227.19 386.34 230.89 398.54 232.99H399.64L408.84 213.99C428.04 174.29 482.84 172.29 505.54 208.29Z" fill="#46001A"/>
<path d="M310.24 9.78999L309.44 8.18999C298.64 14.59 288.84 22.29 280.14 31.29L334.94 140.69C338.34 147.59 345.34 151.89 353.04 151.89C360.64 151.89 367.64 147.49 371.04 140.69L439.74 1.58999C438.473 1.05666 437.24 0.523324 436.04 -0.0100098H415.04L409.84 10.39C389.34 51.69 330.34 51.29 310.24 9.78999Z" fill="#46001A"/>
<path d="M359.54 6.28999C362.273 4.28999 364.94 2.18999 367.54 -0.0100098H354.94C356.607 1.92332 358.14 4.02332 359.54 6.28999Z" fill="#46001A"/>
<path d="M252.54 30.99H253.64L262.84 11.99C265.04 7.48999 267.64 3.48999 270.64 -0.0100098H227.94L217.94 20.09C228.74 25.19 240.34 28.89 252.54 30.99Z" fill="#46001A"/>
<path d="M415.04 599.99H436.04C430.24 597.49 424.34 595.39 418.14 593.69L415.04 599.99Z" fill="#46001A"/>
<path d="M323.64 481.19C320.24 474.29 313.24 469.99 305.64 469.89C297.94 469.89 290.94 474.19 287.54 481.09L227.94 599.99H270.64C292.34 574.29 333.14 574.19 354.94 599.99H367.54C371.073 597.057 374.44 593.923 377.64 590.59L323.64 481.19Z" fill="#46001A"/>
<path d="M29.54 518.29C36.04 513.59 42.04 508.29 47.64 502.59L0.0400391 406.09V495.39C11.64 499.09 22.24 506.69 29.54 518.29Z" fill="#46001A"/>
<path d="M575.64 381.89C567.94 381.89 560.94 386.19 557.54 393.09L487.94 532.09C498.74 537.19 510.34 540.89 522.54 542.99H523.64L532.84 523.99C545.84 496.99 575.34 487.49 600.04 495.39V406.09L593.64 393.19C590.24 386.29 583.24 381.99 575.64 381.89Z" fill="#46001A"/>
<path d="M141.84 334.39C121.34 375.69 62.3401 375.29 42.2401 333.79L41.4401 332.19C30.6401 338.59 20.8401 346.29 12.1401 355.29L66.9401 464.69C70.3401 471.59 77.3401 475.89 85.0401 475.89C92.6401 475.89 99.6401 471.49 103.04 464.69L171.74 325.59C164.84 322.39 157.64 319.79 150.14 317.69L141.84 334.39Z" fill="#46001A"/>
<path d="M91.54 330.29C98.04 325.59 104.04 320.29 109.64 314.59L55.64 205.19C52.24 198.29 45.24 193.99 37.64 193.89C29.94 193.89 22.94 198.19 19.54 205.09L0.0400391 243.99V327.39C22.44 296.19 70.64 297.09 91.54 330.29Z" fill="#46001A"/>
<path d="M549.94 344.09C560.74 349.19 572.34 352.89 584.54 354.99H585.64L594.84 335.99C596.34 332.89 598.04 329.99 600.04 327.39V243.99L549.94 344.09Z" fill="#46001A"/>
</g>
</svg>
