<svg width="301" height="651" viewBox="0 0 301 651" fill="none" xmlns="http://www.w3.org/2000/svg">
<g opacity="0.1">
<mask id="mask0_147_8887" style="mask-type:luminance" maskUnits="userSpaceOnUse" x="-119" y="-135" width="210" height="210">
<path d="M91 75H-119V-135H91V75Z" fill="white"/>
</mask>
<g mask="url(#mask0_147_8887)">
<path d="M26.2637 74.9965H33.6137C31.5837 74.1215 29.5187 73.3865 27.3487 72.7915L26.2637 74.9965Z" fill="#EEC5E7"/>
<path d="M-5.72668 33.4164C-6.91668 31.0014 -9.36668 29.4964 -12.0267 29.4614C-14.7217 29.4614 -17.1717 30.9664 -18.3617 33.3814L-39.2217 74.9964H-24.2767C-16.6817 66.0014 -2.40167 65.9664 5.22833 74.9964H9.63832C10.875 73.9697 12.0533 72.8731 13.1733 71.7064L-5.72668 33.4164Z" fill="#EEC5E7"/>
<path d="M82.4733 -1.33862C79.7783 -1.33862 77.3283 0.16637 76.1383 2.58137L51.7783 51.2314C55.5583 53.0164 59.6183 54.3114 63.8883 55.0464H64.2733L67.4933 48.3964C72.0433 38.9464 82.3683 35.6214 91.0133 38.3864V7.13137L88.7733 2.61637C87.5833 0.201372 85.1333 -1.30362 82.4733 -1.33862Z" fill="#EEC5E7"/>
</g>
<mask id="mask1_147_8887" style="mask-type:luminance" maskUnits="userSpaceOnUse" x="91" y="-135" width="210" height="210">
<path d="M301 75H91V-135H301V75Z" fill="white"/>
</mask>
<g mask="url(#mask1_147_8887)">
<path d="M236.264 74.9965H243.614C241.584 74.1215 239.519 73.3865 237.349 72.7915L236.264 74.9965Z" fill="#EEC5E7"/>
<path d="M204.273 33.4164C203.083 31.0014 200.633 29.4964 197.973 29.4614C195.278 29.4614 192.828 30.9664 191.638 33.3814L170.778 74.9964H185.723C193.318 66.0014 207.598 65.9664 215.228 74.9964H219.638C220.875 73.9697 222.053 72.8731 223.173 71.7064L204.273 33.4164Z" fill="#EEC5E7"/>
<path d="M101.339 46.4015C103.614 44.7565 105.714 42.9015 107.674 40.9065L91.0137 7.13147V38.3865C95.0737 39.6815 98.7837 42.3415 101.339 46.4015Z" fill="#EEC5E7"/>
<path d="M140.644 -17.9636C133.469 -3.50859 112.819 -3.64859 105.784 -18.1736L105.504 -18.7336C101.724 -16.4936 98.294 -13.7986 95.249 -10.6486L114.429 27.6414C115.619 30.0564 118.069 31.5614 120.764 31.5614C123.424 31.5614 125.874 30.0214 127.064 27.6414L151.109 -21.0436C148.694 -22.1636 146.174 -23.0736 143.549 -23.8086L140.644 -17.9636Z" fill="#EEC5E7"/>
</g>
<mask id="mask2_147_8887" style="mask-type:luminance" maskUnits="userSpaceOnUse" x="-119" y="75" width="210" height="210">
<path d="M91 285H-119V75H91V285Z" fill="white"/>
</mask>
<g mask="url(#mask2_147_8887)">
<path d="M78.4484 143.492L75.5434 149.337C68.3684 163.792 47.7184 163.652 40.6834 149.127L40.4034 148.567C36.6234 150.807 33.1934 153.502 30.1484 156.652L49.3284 194.942C50.5184 197.357 52.9684 198.862 55.6634 198.862C58.3234 198.862 60.7734 197.322 61.9634 194.942L86.0084 146.257C83.5934 145.137 81.0734 144.227 78.4484 143.492Z" fill="#EEC5E7"/>
<path d="M57.9389 147.902C60.2139 146.257 62.3139 144.401 64.2739 142.406L45.3739 104.117C44.1839 101.702 41.7339 100.196 39.0739 100.161C36.3789 100.161 33.9289 101.667 32.7389 104.082L8.37891 152.731C12.1589 154.516 16.2189 155.812 20.4889 156.547H20.8739L24.0939 149.896C30.8139 136.001 49.9939 135.302 57.9389 147.902Z" fill="#EEC5E7"/>
<path d="M-10.4162 78.4265L-10.6962 77.8665C-14.4762 80.1065 -17.9062 82.8015 -20.9512 85.9515L-1.77117 124.241C-0.581165 126.656 1.86883 128.161 4.56383 128.161C7.22383 128.161 9.67383 126.621 10.8638 124.241L34.9088 75.5565C34.4655 75.3698 34.0338 75.1831 33.6138 74.9965H26.2638L24.4438 78.6365C17.2688 93.0915 -3.38117 92.9515 -10.4162 78.4265Z" fill="#EEC5E7"/>
<path d="M6.83851 77.2015C7.79517 76.5015 8.72851 75.7665 9.63851 74.9965H5.22852C5.81185 75.6731 6.34851 76.4081 6.83851 77.2015Z" fill="#EEC5E7"/>
<path d="M26.2637 284.996H33.6137C31.5837 284.121 29.5187 283.387 27.3487 282.792L26.2637 284.996Z" fill="#EEC5E7"/>
<path d="M-5.72668 243.416C-6.91668 241.001 -9.36668 239.496 -12.0267 239.461C-14.7217 239.461 -17.1717 240.966 -18.3617 243.381L-39.2217 284.996H-24.2767C-16.6817 276.001 -2.40167 275.966 5.22833 284.996H9.63832C10.875 283.97 12.0533 282.873 13.1733 281.706L-5.72668 243.416Z" fill="#EEC5E7"/>
<path d="M82.4733 208.661C79.7783 208.661 77.3283 210.166 76.1383 212.581L51.7783 261.231C55.5583 263.016 59.6183 264.311 63.8883 265.046H64.2733L67.4933 258.396C72.0433 248.946 82.3683 245.621 91.0133 248.386V217.131L88.7733 212.616C87.5833 210.201 85.1333 208.696 82.4733 208.661Z" fill="#EEC5E7"/>
<path d="M73.4785 195.431C77.2585 197.216 81.3185 198.511 85.5885 199.246H85.9735L89.1935 192.596C89.7185 191.511 90.3135 190.496 91.0135 189.586V160.396L73.4785 195.431Z" fill="#EEC5E7"/>
</g>
<mask id="mask3_147_8887" style="mask-type:luminance" maskUnits="userSpaceOnUse" x="91" y="75" width="210" height="210">
<path d="M301 285H91V75H301V285Z" fill="white"/>
</mask>
<g mask="url(#mask3_147_8887)">
<path d="M162.343 127.637C155.168 142.092 134.518 141.952 127.483 127.427L127.203 126.867C123.423 129.107 119.993 131.802 116.948 134.952L136.128 173.242C137.318 175.657 139.768 177.162 142.463 177.162C145.123 177.162 147.573 175.622 148.763 173.242L172.808 124.557C170.393 123.437 167.873 122.527 165.248 121.792L162.343 127.637Z" fill="#EEC5E7"/>
<path d="M144.739 126.202C147.014 124.557 149.114 122.702 151.074 120.707L132.174 82.4165C130.984 80.0015 128.534 78.4965 125.874 78.4615C123.179 78.4615 120.729 79.9665 119.539 82.3815L95.1787 131.032C98.9587 132.817 103.019 134.112 107.289 134.847H107.674L110.894 128.197C117.614 114.302 136.794 113.602 144.739 126.202Z" fill="#EEC5E7"/>
<path d="M288.448 143.492L285.543 149.337C278.368 163.792 257.718 163.652 250.683 149.127L250.403 148.567C246.623 150.807 243.193 153.502 240.148 156.652L259.328 194.942C260.518 197.357 262.968 198.862 265.663 198.862C268.323 198.862 270.773 197.322 271.963 194.942L296.008 146.257C293.593 145.137 291.073 144.227 288.448 143.492Z" fill="#EEC5E7"/>
<path d="M267.939 147.902C270.214 146.257 272.314 144.401 274.274 142.406L255.374 104.117C254.184 101.702 251.734 100.196 249.074 100.161C246.379 100.161 243.929 101.667 242.739 104.082L218.379 152.731C222.159 154.516 226.219 155.812 230.489 156.547H230.874L234.094 149.896C240.814 136.001 259.994 135.302 267.939 147.902Z" fill="#EEC5E7"/>
<path d="M199.584 78.4265L199.304 77.8665C195.524 80.1065 192.094 82.8015 189.049 85.9515L208.229 124.241C209.419 126.656 211.869 128.161 214.564 128.161C217.224 128.161 219.674 126.621 220.864 124.241L244.909 75.5565C244.465 75.3698 244.034 75.1831 243.614 74.9965H236.264L234.444 78.6365C227.269 93.0915 206.619 92.9515 199.584 78.4265Z" fill="#EEC5E7"/>
<path d="M216.839 77.2015C217.795 76.5015 218.729 75.7665 219.639 74.9965H215.229C215.812 75.6731 216.349 76.4081 216.839 77.2015Z" fill="#EEC5E7"/>
<path d="M179.388 85.8465H179.773L182.993 79.1965C183.763 77.6215 184.673 76.2215 185.723 74.9965H170.778L167.278 82.0315C171.058 83.8165 175.118 85.1115 179.388 85.8465Z" fill="#EEC5E7"/>
<path d="M236.264 284.996H243.614C241.584 284.121 239.519 283.387 237.349 282.792L236.264 284.996Z" fill="#EEC5E7"/>
<path d="M204.273 243.416C203.083 241.001 200.633 239.496 197.973 239.461C195.278 239.461 192.828 240.966 191.638 243.381L170.778 284.996H185.723C193.318 276.001 207.598 275.966 215.228 284.996H219.638C220.875 283.97 222.053 282.873 223.173 281.706L204.273 243.416Z" fill="#EEC5E7"/>
<path d="M101.339 256.401C103.614 254.756 105.714 252.901 107.674 250.906L91.0137 217.131V248.386C95.0737 249.681 98.7837 252.341 101.339 256.401Z" fill="#EEC5E7"/>
<path d="M140.644 192.037C133.469 206.492 112.819 206.352 105.784 191.827L105.504 191.267C101.724 193.507 98.294 196.202 95.249 199.352L114.429 237.642C115.619 240.057 118.069 241.562 120.764 241.562C123.424 241.562 125.874 240.022 127.064 237.642L151.109 188.957C148.694 187.837 146.174 186.927 143.549 186.192L140.644 192.037Z" fill="#EEC5E7"/>
<path d="M123.039 190.601C125.314 188.956 127.414 187.101 129.374 185.106L110.474 146.816C109.284 144.401 106.834 142.896 104.174 142.861C101.479 142.861 99.0287 144.366 97.8387 146.781L91.0137 160.396V189.586C98.8537 178.666 115.724 178.981 123.039 190.601Z" fill="#EEC5E7"/>
</g>
<mask id="mask4_147_8887" style="mask-type:luminance" maskUnits="userSpaceOnUse" x="-119" y="285" width="210" height="210">
<path d="M91 495H-119V285H91V495Z" fill="white"/>
</mask>
<g mask="url(#mask4_147_8887)">
<path d="M78.4484 353.492L75.5434 359.337C68.3684 373.792 47.7184 373.652 40.6834 359.127L40.4034 358.567C36.6234 360.807 33.1934 363.502 30.1484 366.652L49.3284 404.942C50.5184 407.357 52.9684 408.862 55.6634 408.862C58.3234 408.862 60.7734 407.322 61.9634 404.942L86.0084 356.257C83.5934 355.137 81.0734 354.227 78.4484 353.492Z" fill="#EEC5E7"/>
<path d="M57.9389 357.902C60.2139 356.257 62.3139 354.401 64.2739 352.406L45.3739 314.117C44.1839 311.702 41.7339 310.196 39.0739 310.161C36.3789 310.161 33.9289 311.667 32.7389 314.082L8.37891 362.731C12.1589 364.516 16.2189 365.812 20.4889 366.547H20.8739L24.0939 359.896C30.8139 346.001 49.9939 345.302 57.9389 357.902Z" fill="#EEC5E7"/>
<path d="M-10.4162 288.426L-10.6962 287.866C-14.4762 290.106 -17.9062 292.801 -20.9512 295.951L-1.77117 334.241C-0.581165 336.656 1.86883 338.161 4.56383 338.161C7.22383 338.161 9.67383 336.621 10.8638 334.241L34.9088 285.556C34.4655 285.37 34.0338 285.183 33.6138 284.996H26.2638L24.4438 288.636C17.2688 303.091 -3.38117 302.951 -10.4162 288.426Z" fill="#EEC5E7"/>
<path d="M6.83851 287.201C7.79517 286.501 8.72851 285.766 9.63851 284.996H5.22852C5.81185 285.673 6.34851 286.408 6.83851 287.201Z" fill="#EEC5E7"/>
<path d="M26.2637 494.997H33.6137C31.5837 494.122 29.5187 493.387 27.3487 492.792L26.2637 494.997Z" fill="#EEC5E7"/>
<path d="M-5.72668 453.416C-6.91668 451.001 -9.36668 449.496 -12.0267 449.461C-14.7217 449.461 -17.1717 450.966 -18.3617 453.381L-39.2217 494.996H-24.2767C-16.6817 486.001 -2.40167 485.966 5.22833 494.996H9.63832C10.875 493.97 12.0533 492.873 13.1733 491.706L-5.72668 453.416Z" fill="#EEC5E7"/>
<path d="M82.4733 418.661C79.7783 418.661 77.3283 420.166 76.1383 422.581L51.7783 471.231C55.5583 473.016 59.6183 474.311 63.8883 475.046H64.2733L67.4933 468.396C72.0433 458.946 82.3683 455.621 91.0133 458.386V427.131L88.7733 422.616C87.5833 420.201 85.1333 418.696 82.4733 418.661Z" fill="#EEC5E7"/>
<path d="M73.4785 405.431C77.2585 407.216 81.3185 408.511 85.5885 409.246H85.9735L89.1935 402.596C89.7185 401.511 90.3135 400.496 91.0135 399.586V370.396L73.4785 405.431Z" fill="#EEC5E7"/>
</g>
<mask id="mask5_147_8887" style="mask-type:luminance" maskUnits="userSpaceOnUse" x="91" y="285" width="210" height="210">
<path d="M301 495H91V285H301V495Z" fill="white"/>
</mask>
<g mask="url(#mask5_147_8887)">
<path d="M162.343 337.636C155.168 352.091 134.518 351.951 127.483 337.426L127.203 336.866C123.423 339.106 119.993 341.801 116.948 344.951L136.128 383.241C137.318 385.656 139.768 387.161 142.463 387.161C145.123 387.161 147.573 385.621 148.763 383.241L172.808 334.556C170.393 333.436 167.873 332.526 165.248 331.791L162.343 337.636Z" fill="#EEC5E7"/>
<path d="M144.739 336.201C147.014 334.556 149.114 332.701 151.074 330.706L132.174 292.416C130.984 290.001 128.534 288.496 125.874 288.461C123.179 288.461 120.729 289.966 119.539 292.381L95.1787 341.031C98.9587 342.816 103.019 344.111 107.289 344.846H107.674L110.894 338.196C117.614 324.301 136.794 323.601 144.739 336.201Z" fill="#EEC5E7"/>
<path d="M199.584 288.426L199.304 287.866C195.524 290.106 192.094 292.801 189.049 295.951L208.229 334.241C209.419 336.656 211.869 338.161 214.564 338.161C217.224 338.161 219.674 336.621 220.864 334.241L244.909 285.556C244.465 285.37 244.034 285.183 243.614 284.996H236.264L234.444 288.636C227.269 303.091 206.619 302.951 199.584 288.426Z" fill="#EEC5E7"/>
<path d="M216.839 287.201C217.795 286.501 218.729 285.766 219.639 284.996H215.229C215.812 285.673 216.349 286.408 216.839 287.201Z" fill="#EEC5E7"/>
<path d="M179.388 295.846H179.773L182.993 289.196C183.763 287.621 184.673 286.221 185.723 284.996H170.778L167.278 292.031C171.058 293.816 175.118 295.111 179.388 295.846Z" fill="#EEC5E7"/>
<path d="M236.264 494.997H243.614C241.584 494.122 239.519 493.387 237.349 492.792L236.264 494.997Z" fill="#EEC5E7"/>
<path d="M204.273 453.416C203.083 451.001 200.633 449.496 197.973 449.461C195.278 449.461 192.828 450.966 191.638 453.381L170.778 494.996H185.723C193.318 486.001 207.598 485.966 215.228 494.996H219.638C220.875 493.97 222.053 492.873 223.173 491.706L204.273 453.416Z" fill="#EEC5E7"/>
<path d="M101.339 466.401C103.614 464.756 105.714 462.901 107.674 460.906L91.0137 427.131V458.386C95.0737 459.681 98.7837 462.341 101.339 466.401Z" fill="#EEC5E7"/>
<path d="M140.644 402.037C133.469 416.492 112.819 416.352 105.784 401.827L105.504 401.267C101.724 403.507 98.294 406.202 95.249 409.352L114.429 447.642C115.619 450.057 118.069 451.562 120.764 451.562C123.424 451.562 125.874 450.022 127.064 447.642L151.109 398.957C148.694 397.837 146.174 396.927 143.549 396.192L140.644 402.037Z" fill="#EEC5E7"/>
<path d="M123.039 400.601C125.314 398.956 127.414 397.101 129.374 395.106L110.474 356.816C109.284 354.401 106.834 352.896 104.174 352.861C101.479 352.861 99.0287 354.366 97.8387 356.781L91.0137 370.396V399.586C98.8537 388.666 115.724 388.981 123.039 400.601Z" fill="#EEC5E7"/>
</g>
<mask id="mask6_147_8887" style="mask-type:luminance" maskUnits="userSpaceOnUse" x="-119" y="495" width="210" height="210">
<path d="M91 705H-119V495H91V705Z" fill="white"/>
</mask>
<g mask="url(#mask6_147_8887)">
<path d="M78.4484 563.492L75.5434 569.337C68.3684 583.792 47.7184 583.652 40.6834 569.127L40.4034 568.567C36.6234 570.807 33.1934 573.502 30.1484 576.652L49.3284 614.942C50.5184 617.357 52.9684 618.862 55.6634 618.862C58.3234 618.862 60.7734 617.322 61.9634 614.942L86.0084 566.257C83.5934 565.137 81.0734 564.227 78.4484 563.492Z" fill="#EEC5E7"/>
<path d="M57.9389 567.902C60.2139 566.257 62.3139 564.401 64.2739 562.406L45.3739 524.117C44.1839 521.702 41.7339 520.196 39.0739 520.161C36.3789 520.161 33.9289 521.667 32.7389 524.082L8.37891 572.731C12.1589 574.516 16.2189 575.812 20.4889 576.547H20.8739L24.0939 569.896C30.8139 556.001 49.9939 555.302 57.9389 567.902Z" fill="#EEC5E7"/>
<path d="M-10.4162 498.426L-10.6962 497.866C-14.4762 500.106 -17.9062 502.801 -20.9512 505.951L-1.77117 544.241C-0.581165 546.656 1.86883 548.161 4.56383 548.161C7.22383 548.161 9.67383 546.621 10.8638 544.241L34.9088 495.556C34.4655 495.37 34.0338 495.183 33.6138 494.996H26.2638L24.4438 498.636C17.2688 513.091 -3.38117 512.951 -10.4162 498.426Z" fill="#EEC5E7"/>
<path d="M6.83851 497.201C7.79517 496.501 8.72851 495.766 9.63851 494.996H5.22852C5.81185 495.673 6.34851 496.408 6.83851 497.201Z" fill="#EEC5E7"/>
<path d="M82.4733 628.661C79.7783 628.661 77.3283 630.166 76.1383 632.581L51.7783 681.231C55.5583 683.016 59.6183 684.311 63.8883 685.046H64.2733L67.4933 678.396C72.0433 668.946 82.3683 665.621 91.0133 668.386V637.131L88.7733 632.616C87.5833 630.201 85.1333 628.696 82.4733 628.661Z" fill="#EEC5E7"/>
<path d="M73.4785 615.431C77.2585 617.216 81.3185 618.511 85.5885 619.246H85.9735L89.1935 612.596C89.7185 611.511 90.3135 610.496 91.0135 609.586V580.396L73.4785 615.431Z" fill="#EEC5E7"/>
</g>
<mask id="mask7_147_8887" style="mask-type:luminance" maskUnits="userSpaceOnUse" x="91" y="495" width="210" height="210">
<path d="M301 705H91V495H301V705Z" fill="white"/>
</mask>
<g mask="url(#mask7_147_8887)">
<path d="M162.343 547.636C155.168 562.091 134.518 561.951 127.483 547.426L127.203 546.866C123.423 549.106 119.993 551.801 116.948 554.951L136.128 593.241C137.318 595.656 139.768 597.161 142.463 597.161C145.123 597.161 147.573 595.621 148.763 593.241L172.808 544.556C170.393 543.436 167.873 542.526 165.248 541.791L162.343 547.636Z" fill="#EEC5E7"/>
<path d="M144.739 546.201C147.014 544.556 149.114 542.701 151.074 540.706L132.174 502.416C130.984 500.001 128.534 498.496 125.874 498.461C123.179 498.461 120.729 499.966 119.539 502.381L95.1787 551.031C98.9587 552.816 103.019 554.111 107.289 554.846H107.674L110.894 548.196C117.614 534.301 136.794 533.601 144.739 546.201Z" fill="#EEC5E7"/>
<path d="M288.448 563.492L285.543 569.337C278.368 583.792 257.718 583.652 250.683 569.127L250.403 568.567C246.623 570.807 243.193 573.502 240.148 576.652L259.328 614.942C260.518 617.357 262.968 618.862 265.663 618.862C268.323 618.862 270.773 617.322 271.963 614.942L296.008 566.257C293.593 565.137 291.073 564.227 288.448 563.492Z" fill="#EEC5E7"/>
<path d="M267.939 567.902C270.214 566.257 272.314 564.401 274.274 562.406L255.374 524.117C254.184 521.702 251.734 520.196 249.074 520.161C246.379 520.161 243.929 521.667 242.739 524.082L218.379 572.731C222.159 574.516 226.219 575.812 230.489 576.547H230.874L234.094 569.896C240.814 556.001 259.994 555.302 267.939 567.902Z" fill="#EEC5E7"/>
<path d="M199.584 498.426L199.304 497.866C195.524 500.106 192.094 502.801 189.049 505.951L208.229 544.241C209.419 546.656 211.869 548.161 214.564 548.161C217.224 548.161 219.674 546.621 220.864 544.241L244.909 495.556C244.465 495.37 244.034 495.183 243.614 494.996H236.264L234.444 498.636C227.269 513.091 206.619 512.951 199.584 498.426Z" fill="#EEC5E7"/>
<path d="M216.839 497.201C217.795 496.501 218.729 495.766 219.639 494.996H215.229C215.812 495.673 216.349 496.408 216.839 497.201Z" fill="#EEC5E7"/>
<path d="M179.388 505.846H179.773L182.993 499.196C183.763 497.621 184.673 496.221 185.723 494.996H170.778L167.278 502.031C171.058 503.816 175.118 505.111 179.388 505.846Z" fill="#EEC5E7"/>
<path d="M101.339 676.401C103.614 674.756 105.714 672.901 107.674 670.906L91.0137 637.131V668.386C95.0737 669.681 98.7837 672.341 101.339 676.401Z" fill="#EEC5E7"/>
<path d="M140.644 612.037C133.469 626.492 112.819 626.352 105.784 611.827L105.504 611.267C101.724 613.507 98.294 616.202 95.249 619.352L114.429 657.642C115.619 660.057 118.069 661.562 120.764 661.562C123.424 661.562 125.874 660.022 127.064 657.642L151.109 608.957C148.694 607.837 146.174 606.927 143.549 606.192L140.644 612.037Z" fill="#EEC5E7"/>
<path d="M123.039 610.601C125.314 608.956 127.414 607.101 129.374 605.106L110.474 566.816C109.284 564.401 106.834 562.896 104.174 562.861C101.479 562.861 99.0287 564.366 97.8387 566.781L91.0137 580.396V609.586C98.8537 598.666 115.724 598.981 123.039 610.601Z" fill="#EEC5E7"/>
</g>
</g>
</svg>
