<svg width="420" height="280" viewBox="0 0 420 280" fill="none" xmlns="http://www.w3.org/2000/svg">
<g opacity="0.1">
<mask id="mask0_162_6072" style="mask-type:luminance" maskUnits="userSpaceOnUse" x="0" y="-175" width="210" height="210">
<path d="M210 35H0V-175H210V35Z" fill="white"/>
</mask>
<g mask="url(#mask0_162_6072)">
<path d="M145.262 34.9965H152.612C150.582 34.1215 148.517 33.3865 146.347 32.7915L145.262 34.9965Z" fill="#EEC5E7"/>
<path d="M113.272 -6.58358C112.082 -8.99858 109.632 -10.5036 106.972 -10.5386C104.277 -10.5386 101.827 -9.03358 100.637 -6.61858L79.7773 34.9964H94.7223C102.317 26.0014 116.597 25.9664 124.227 34.9964H128.637C129.874 33.9697 131.052 32.8731 132.172 31.7064L113.272 -6.58358Z" fill="#EEC5E7"/>
<path d="M10.3387 6.40146C12.6137 4.75646 14.7137 2.90147 16.6737 0.906467L0.0136719 -32.8685V-1.61353C4.07367 -0.318527 7.78367 2.34146 10.3387 6.40146Z" fill="#EEC5E7"/>
<path d="M201.472 -41.3386C198.777 -41.3386 196.327 -39.8336 195.137 -37.4186L170.777 11.2314C174.557 13.0164 178.617 14.3114 182.887 15.0464H183.272L186.492 8.39636C191.042 -1.05364 201.367 -4.37863 210.012 -1.61363V-32.8686L207.772 -37.3836C206.582 -39.7986 204.132 -41.3036 201.472 -41.3386Z" fill="#EEC5E7"/>
</g>
<mask id="mask1_162_6072" style="mask-type:luminance" maskUnits="userSpaceOnUse" x="210" y="-175" width="210" height="210">
<path d="M420 35H210V-175H420V35Z" fill="white"/>
</mask>
<g mask="url(#mask1_162_6072)">
<path d="M355.266 34.9965H362.616C360.586 34.1215 358.521 33.3865 356.351 32.7915L355.266 34.9965Z" fill="#EEC5E7"/>
<path d="M323.276 -6.58358C322.086 -8.99858 319.636 -10.5036 316.976 -10.5386C314.281 -10.5386 311.831 -9.03358 310.641 -6.61858L289.781 34.9964H304.726C312.321 26.0014 326.601 25.9664 334.231 34.9964H338.641C339.878 33.9697 341.056 32.8731 342.176 31.7064L323.276 -6.58358Z" fill="#EEC5E7"/>
<path d="M220.341 6.40146C222.616 4.75646 224.716 2.90147 226.676 0.906467L210.016 -32.8685V-1.61353C214.076 -0.318527 217.786 2.34146 220.341 6.40146Z" fill="#EEC5E7"/>
</g>
<mask id="mask2_162_6072" style="mask-type:luminance" maskUnits="userSpaceOnUse" x="0" y="35" width="210" height="210">
<path d="M210 245H0V35H210V245Z" fill="white"/>
</mask>
<g mask="url(#mask2_162_6072)">
<path d="M71.3442 87.6365C64.1692 102.092 43.5192 101.952 36.4842 87.4265L36.2042 86.8665C32.4242 89.1065 28.9942 91.8015 25.9492 94.9515L45.1292 133.242C46.3192 135.657 48.7692 137.162 51.4642 137.162C54.1242 137.162 56.5742 135.622 57.7642 133.242L81.8092 84.5565C79.3942 83.4365 76.8742 82.5265 74.2492 81.7915L71.3442 87.6365Z" fill="#EEC5E7"/>
<path d="M53.7377 86.2015C56.0127 84.5565 58.1127 82.7015 60.0727 80.7065L41.1727 42.4165C39.9827 40.0015 37.5327 38.4965 34.8727 38.4615C32.1777 38.4615 29.7277 39.9665 28.5377 42.3815L4.17773 91.0315C7.95773 92.8165 12.0177 94.1115 16.2877 94.8465H16.6727L19.8927 88.1965C26.6127 74.3015 45.7927 73.6016 53.7377 86.2015Z" fill="#EEC5E7"/>
<path d="M197.448 103.492L194.543 109.337C187.368 123.792 166.718 123.652 159.683 109.127L159.403 108.567C155.623 110.807 152.193 113.502 149.148 116.652L168.328 154.942C169.518 157.357 171.968 158.862 174.663 158.862C177.323 158.862 179.773 157.322 180.963 154.942L205.008 106.257C202.593 105.137 200.073 104.227 197.448 103.492Z" fill="#EEC5E7"/>
<path d="M176.939 107.902C179.214 106.257 181.314 104.401 183.274 102.406L164.374 64.1165C163.184 61.7015 160.734 60.1965 158.074 60.1615C155.379 60.1615 152.929 61.6665 151.739 64.0815L127.379 112.731C131.159 114.516 135.219 115.812 139.489 116.547H139.874L143.094 109.896C149.814 96.0015 168.994 95.3015 176.939 107.902Z" fill="#EEC5E7"/>
<path d="M108.582 38.4265L108.302 37.8665C104.522 40.1065 101.092 42.8015 98.0469 45.9515L117.227 84.2415C118.417 86.6565 120.867 88.1615 123.562 88.1615C126.222 88.1615 128.672 86.6215 129.862 84.2415L153.907 35.5565C153.464 35.3698 153.032 35.1831 152.612 34.9965H145.262L143.442 38.6365C136.267 53.0915 115.617 52.9515 108.582 38.4265Z" fill="#EEC5E7"/>
<path d="M125.84 37.2015C126.797 36.5015 127.73 35.7665 128.64 34.9965H124.23C124.814 35.6731 125.35 36.4081 125.84 37.2015Z" fill="#EEC5E7"/>
<path d="M88.3873 45.8465H88.7723L91.9923 39.1965C92.7623 37.6215 93.6723 36.2215 94.7223 34.9965H79.7773L76.2773 42.0315C80.0573 43.8165 84.1173 45.1115 88.3873 45.8465Z" fill="#EEC5E7"/>
<path d="M145.262 244.996H152.612C150.582 244.121 148.517 243.387 146.347 242.792L145.262 244.996Z" fill="#EEC5E7"/>
<path d="M113.272 203.416C112.082 201.001 109.632 199.496 106.972 199.461C104.277 199.461 101.827 200.966 100.637 203.381L79.7773 244.996H94.7223C102.317 236.001 116.597 235.966 124.227 244.996H128.637C129.874 243.97 131.052 242.873 132.172 241.706L113.272 203.416Z" fill="#EEC5E7"/>
<path d="M10.3387 216.401C12.6137 214.756 14.7137 212.901 16.6737 210.906L0.0136719 177.131V208.386C4.07367 209.681 7.78367 212.341 10.3387 216.401Z" fill="#EEC5E7"/>
<path d="M201.472 168.661C198.777 168.661 196.327 170.166 195.137 172.581L170.777 221.231C174.557 223.016 178.617 224.311 182.887 225.046H183.272L186.492 218.396C191.042 208.946 201.367 205.621 210.012 208.386V177.131L207.772 172.616C206.582 170.201 204.132 168.696 201.472 168.661Z" fill="#EEC5E7"/>
<path d="M49.6431 152.037C42.4681 166.492 21.818 166.352 14.783 151.827L14.503 151.267C10.723 153.507 7.29305 156.202 4.24805 159.352L23.428 197.642C24.618 200.057 27.068 201.562 29.763 201.562C32.423 201.562 34.873 200.022 36.063 197.642L60.108 148.957C57.693 147.837 55.173 146.927 52.548 146.192L49.6431 152.037Z" fill="#EEC5E7"/>
<path d="M32.0387 150.601C34.3137 148.956 36.4137 147.101 38.3737 145.106L19.4737 106.816C18.2837 104.401 15.8337 102.896 13.1737 102.861C10.4787 102.861 8.02867 104.366 6.83867 106.781L0.0136719 120.396V149.586C7.85367 138.666 24.7237 138.981 32.0387 150.601Z" fill="#EEC5E7"/>
<path d="M192.48 155.431C196.26 157.216 200.32 158.511 204.59 159.246H204.975L208.195 152.596C208.72 151.511 209.315 150.496 210.015 149.586V120.396L192.48 155.431Z" fill="#EEC5E7"/>
</g>
<mask id="mask3_162_6072" style="mask-type:luminance" maskUnits="userSpaceOnUse" x="210" y="35" width="210" height="210">
<path d="M420 245H210V35H420V245Z" fill="white"/>
</mask>
<g mask="url(#mask3_162_6072)">
<path d="M281.344 87.6365C274.169 102.092 253.519 101.952 246.484 87.4265L246.204 86.8665C242.424 89.1065 238.994 91.8015 235.949 94.9515L255.129 133.242C256.319 135.657 258.769 137.162 261.464 137.162C264.124 137.162 266.574 135.622 267.764 133.242L291.809 84.5565C289.394 83.4365 286.874 82.5265 284.249 81.7915L281.344 87.6365Z" fill="#EEC5E7"/>
<path d="M263.74 86.2015C266.015 84.5565 268.115 82.7015 270.075 80.7065L251.175 42.4165C249.985 40.0015 247.535 38.4965 244.875 38.4615C242.18 38.4615 239.73 39.9665 238.54 42.3815L214.18 91.0315C217.96 92.8165 222.02 94.1115 226.29 94.8465H226.675L229.895 88.1965C236.615 74.3015 255.795 73.6016 263.74 86.2015Z" fill="#EEC5E7"/>
<path d="M318.586 38.4265L318.306 37.8665C314.526 40.1065 311.096 42.8015 308.051 45.9515L327.231 84.2415C328.421 86.6565 330.871 88.1615 333.566 88.1615C336.226 88.1615 338.676 86.6215 339.866 84.2415L363.911 35.5565C363.467 35.3698 363.036 35.1831 362.616 34.9965H355.266L353.446 38.6365C346.271 53.0915 325.621 52.9515 318.586 38.4265Z" fill="#EEC5E7"/>
<path d="M335.84 37.2015C336.797 36.5015 337.73 35.7665 338.64 34.9965H334.23C334.814 35.6731 335.35 36.4081 335.84 37.2015Z" fill="#EEC5E7"/>
<path d="M298.391 45.8465H298.776L301.996 39.1965C302.766 37.6215 303.676 36.2215 304.726 34.9965H289.781L286.281 42.0315C290.061 43.8165 294.121 45.1115 298.391 45.8465Z" fill="#EEC5E7"/>
<path d="M355.266 244.996H362.616C360.586 244.121 358.521 243.387 356.351 242.792L355.266 244.996Z" fill="#EEC5E7"/>
<path d="M323.276 203.416C322.086 201.001 319.636 199.496 316.976 199.461C314.281 199.461 311.831 200.966 310.641 203.381L289.781 244.996H304.726C312.321 236.001 326.601 235.966 334.231 244.996H338.641C339.878 243.97 341.056 242.873 342.176 241.706L323.276 203.416Z" fill="#EEC5E7"/>
<path d="M220.341 216.401C222.616 214.756 224.716 212.901 226.676 210.906L210.016 177.131V208.386C214.076 209.681 217.786 212.341 220.341 216.401Z" fill="#EEC5E7"/>
<path d="M259.645 152.037C252.47 166.492 231.82 166.352 224.785 151.827L224.505 151.267C220.725 153.507 217.295 156.202 214.25 159.352L233.43 197.642C234.62 200.057 237.07 201.562 239.765 201.562C242.425 201.562 244.875 200.022 246.065 197.642L270.11 148.957C267.695 147.837 265.175 146.927 262.55 146.192L259.645 152.037Z" fill="#EEC5E7"/>
<path d="M242.041 150.601C244.316 148.956 246.416 147.101 248.376 145.106L229.476 106.816C228.286 104.401 225.836 102.896 223.176 102.861C220.481 102.861 218.031 104.366 216.841 106.781L210.016 120.396V149.586C217.856 138.666 234.726 138.981 242.041 150.601Z" fill="#EEC5E7"/>
</g>
<mask id="mask4_162_6072" style="mask-type:luminance" maskUnits="userSpaceOnUse" x="0" y="245" width="210" height="210">
<path d="M210 455H0V245H210V455Z" fill="white"/>
</mask>
<g mask="url(#mask4_162_6072)">
<path d="M53.7377 296.202C56.0127 294.557 58.1127 292.702 60.0727 290.707L41.1727 252.417C39.9827 250.002 37.5327 248.497 34.8727 248.462C32.1777 248.462 29.7277 249.967 28.5377 252.382L4.17773 301.032C7.95773 302.817 12.0177 304.112 16.2877 304.847H16.6727L19.8927 298.197C26.6127 284.302 45.7927 283.602 53.7377 296.202Z" fill="#EEC5E7"/>
<path d="M176.939 317.902C179.214 316.257 181.314 314.401 183.274 312.406L164.374 274.117C163.184 271.702 160.734 270.196 158.074 270.161C155.379 270.161 152.929 271.667 151.739 274.082L127.379 322.731C131.159 324.516 135.219 325.812 139.489 326.547H139.874L143.094 319.896C149.814 306.001 168.994 305.302 176.939 317.902Z" fill="#EEC5E7"/>
<path d="M108.582 248.426L108.302 247.866C104.522 250.106 101.092 252.801 98.0469 255.951L117.227 294.241C118.417 296.656 120.867 298.161 123.562 298.161C126.222 298.161 128.672 296.621 129.862 294.241L153.907 245.556C153.464 245.37 153.032 245.183 152.612 244.996H145.262L143.442 248.636C136.267 263.091 115.617 262.951 108.582 248.426Z" fill="#EEC5E7"/>
<path d="M125.84 247.201C126.797 246.501 127.73 245.766 128.64 244.996H124.23C124.814 245.673 125.35 246.408 125.84 247.201Z" fill="#EEC5E7"/>
<path d="M88.3873 255.846H88.7723L91.9923 249.196C92.7623 247.621 93.6723 246.221 94.7223 244.996H79.7773L76.2773 252.031C80.0573 253.816 84.1173 255.111 88.3873 255.846Z" fill="#EEC5E7"/>
</g>
<mask id="mask5_162_6072" style="mask-type:luminance" maskUnits="userSpaceOnUse" x="210" y="245" width="210" height="210">
<path d="M420 455H210V245H420V455Z" fill="white"/>
</mask>
<g mask="url(#mask5_162_6072)">
<path d="M263.74 296.202C266.015 294.557 268.115 292.702 270.075 290.707L251.175 252.417C249.985 250.002 247.535 248.497 244.875 248.462C242.18 248.462 239.73 249.967 238.54 252.382L214.18 301.032C217.96 302.817 222.02 304.112 226.29 304.847H226.675L229.895 298.197C236.615 284.302 255.795 283.602 263.74 296.202Z" fill="#EEC5E7"/>
<path d="M386.939 317.902C389.214 316.257 391.314 314.401 393.274 312.406L374.374 274.117C373.184 271.702 370.734 270.196 368.074 270.161C365.379 270.161 362.929 271.667 361.739 274.082L337.379 322.731C341.159 324.516 345.219 325.812 349.489 326.547H349.874L353.094 319.896C359.814 306.001 378.994 305.302 386.939 317.902Z" fill="#EEC5E7"/>
<path d="M318.586 248.426L318.306 247.866C314.526 250.106 311.096 252.801 308.051 255.951L327.231 294.241C328.421 296.656 330.871 298.161 333.566 298.161C336.226 298.161 338.676 296.621 339.866 294.241L363.911 245.556C363.467 245.37 363.036 245.183 362.616 244.996H355.266L353.446 248.636C346.271 263.091 325.621 262.951 318.586 248.426Z" fill="#EEC5E7"/>
<path d="M335.84 247.201C336.797 246.501 337.73 245.766 338.64 244.996H334.23C334.814 245.673 335.35 246.408 335.84 247.201Z" fill="#EEC5E7"/>
<path d="M298.391 255.846H298.776L301.996 249.196C302.766 247.621 303.676 246.221 304.726 244.996H289.781L286.281 252.031C290.061 253.816 294.121 255.111 298.391 255.846Z" fill="#EEC5E7"/>
</g>
</g>
</svg>
